<svg xmlns="http://www.w3.org/2000/svg" width="20" height="19.998" viewBox="0 0 20 19.998">
    <g id="prefix__ios-call" transform="translate(-63.857 -64.035)">
        <path id="prefix__Path_22" d="M83.28 79.695a16.8 16.8 0 0 0-3.509-2.348c-1.052-.505-1.437-.495-2.182.042-.62.448-1.02.864-1.734.708a10.342 10.342 0 0 1-3.483-2.577 10.268 10.268 0 0 1-2.577-3.483c-.151-.718.266-1.114.708-1.734.536-.745.552-1.13.042-2.182a16.467 16.467 0 0 0-2.345-3.51c-.765-.765-.937-.6-1.359-.448a7.733 7.733 0 0 0-1.244.661A3.754 3.754 0 0 0 64.1 66.4c-.3.64-.64 1.833 1.109 4.946a27.6 27.6 0 0 0 4.851 6.474l.005.005.005.005a27.707 27.707 0 0 0 6.472 4.852c3.113 1.749 4.306 1.406 4.946 1.109a3.69 3.69 0 0 0 1.578-1.491 7.733 7.733 0 0 0 .661-1.244c.151-.424.323-.596-.447-1.361z" data-name="Path 22" style="fill:#001141"/>
    </g>
</svg>
