<svg xmlns="http://www.w3.org/2000/svg" width="20.004" height="13" viewBox="0 0 20.004 13">
    <defs>
        <style>
            .prefix__cls-1{fill:#0f62fe}
        </style>
    </defs>
    <g id="prefix__ios-people" transform="translate(-31.5 -110.2)">
        <path id="prefix__Path_244" d="M126.863 120.2c-.5-.178-1.314-.187-1.675-.325a2.367 2.367 0 0 1-.775-.361 4.79 4.79 0 0 1-.129-1.27 2.051 2.051 0 0 0 .441-.624 6.932 6.932 0 0 0 .214-1.225s.294.125.41-.463c.1-.508.285-.775.236-1.149s-.258-.285-.258-.285a3.336 3.336 0 0 0 .258-1.666 2.892 2.892 0 0 0-5.761 0 3.386 3.386 0 0 0 .254 1.666s-.209-.089-.258.285.134.642.236 1.149c.116.593.41.463.41.463a7 7 0 0 0 .214 1.225 2.051 2.051 0 0 0 .441.624 4.79 4.79 0 0 1-.129 1.27 2.278 2.278 0 0 1-.775.356c-.356.138-1.172.156-1.675.334a3.144 3.144 0 0 0-2.04 2.994h12.4a3.138 3.138 0 0 0-2.039-2.998z" class="prefix__cls-1" data-name="Path 244" transform="translate(-81.213)"/>
        <path id="prefix__Path_245" d="M36.334 165.04a3.025 3.025 0 0 0 1.488-.414c-.691-1.047-.316-2.268-.459-3.408a1.88 1.88 0 0 0-2.081-1.818h-.018a1.885 1.885 0 0 0-2.063 1.818c-.143 1.136.254 2.495-.454 3.408a2.8 2.8 0 0 0 1.492.37 2.256 2.256 0 0 1-.045.748 1.125 1.125 0 0 1-.535.245 10.336 10.336 0 0 0-1.154.321 1.876 1.876 0 0 0-1.007 1.657h3.577a3.2 3.2 0 0 1 1.425-1.327 2.992 2.992 0 0 1 1.1-.232s.169-.267-.388-.37a3.8 3.8 0 0 1-.855-.3c-.081-.096-.023-.698-.023-.698zm10.336 0a3.025 3.025 0 0 1-1.488-.414c.691-1.047.316-2.268.459-3.408a1.88 1.88 0 0 1 2.081-1.818h.018a1.885 1.885 0 0 1 2.063 1.818c.143 1.136-.254 2.495.454 3.408a2.8 2.8 0 0 1-1.492.37 2.256 2.256 0 0 0 .045.748 1.125 1.125 0 0 0 .535.245 10.336 10.336 0 0 1 1.154.321 1.876 1.876 0 0 1 1.007 1.657h-3.58a3.2 3.2 0 0 0-1.426-1.327 2.992 2.992 0 0 0-1.1-.232s-.169-.267.388-.37a3.8 3.8 0 0 0 .855-.3c.085-.1.027-.7.027-.7z" class="prefix__cls-1" data-name="Path 245" transform="translate(0 -47.008)"/>
    </g>
</svg>
