<svg xmlns="http://www.w3.org/2000/svg" width="16.587" height="16.587" viewBox="0 0 16.587 16.587">
    <g id="prefix__ios-paper" transform="translate(-48 -48)">
        <path id="prefix__Subtraction_1" d="M15.355 16.587H1.276A1.277 1.277 0 0 1 0 15.311V3.828a1.277 1.277 0 0 1 1.276-1.276h.637v11.563a.558.558 0 0 0 1.117 0V1.276a1.144 1.144 0 0 1 1.2-1.2L15.311 0a1.277 1.277 0 0 1 1.276 1.276v14.079a1.233 1.233 0 0 1-1.232 1.232zm-9.694-4.466a.558.558 0 0 0 0 1.116h7.816a.558.558 0 0 0 0-1.116zm0-3.189a.558.558 0 0 0 0 1.116h7.816a.558.558 0 0 0 0-1.116zm2.313-3.356A1.516 1.516 0 0 0 9.567 7.1v.529h.533l.005-.527c.975-.074 1.558-.593 1.561-1.39 0-.7-.473-1.165-1.4-1.373l-.133-.039.009-1.14a.608.608 0 0 1 .515.552h.943a1.459 1.459 0 0 0-1.452-1.391v-.536h-.53v.53A1.485 1.485 0 0 0 8.1 3.723c0 .641.426 1.069 1.272 1.272l.219.055-.014 1.205a.715.715 0 0 1-.647-.68zm2.141.68l.009-1.063c.387.123.546.273.548.515 0 .275-.21.481-.555.549zM9.6 4.166c-.334-.116-.488-.277-.484-.508 0-.252.18-.434.495-.5L9.6 4.164z" data-name="Subtraction 1" transform="translate(48 48)" style="fill:#0f62fe"/>
    </g>
</svg>
