<svg xmlns="http://www.w3.org/2000/svg" width="16.074" height="15.456" viewBox="0 0 16.074 15.456">
    <g id="prefix__ios-heart" transform="translate(-48 -56)">
        <path id="prefix__Path_246" d="M59.746 56h-.039a4.4 4.4 0 0 0-3.671 2.009A4.4 4.4 0 0 0 52.366 56h-.039A4.369 4.369 0 0 0 48 60.366a9.406 9.406 0 0 0 1.847 5.127 32.368 32.368 0 0 0 6.19 5.962 32.367 32.367 0 0 0 6.19-5.962 9.406 9.406 0 0 0 1.847-5.127A4.369 4.369 0 0 0 59.746 56z" data-name="Path 246" style="fill:#0f62fe"/>
    </g>
</svg>
