<svg xmlns="http://www.w3.org/2000/svg" width="13.379" height="13.379" viewBox="0 0 13.379 13.379">
    <g id="prefix__ios-paper" transform="translate(-48 -48)">
        <path id="prefix__Subtraction_1" d="M12.386 13.379H1.029A1.03 1.03 0 0 1 0 12.35V3.088a1.03 1.03 0 0 1 1.029-1.03h.514v9.327a.45.45 0 0 0 .9 0V1.029a.923.923 0 0 1 .966-.964L12.35 0a1.03 1.03 0 0 1 1.029 1.029v11.357a1 1 0 0 1-.993.993zm-7.819-3.6a.45.45 0 0 0 0 .9h6.3a.45.45 0 0 0 0-.9zm0-2.573a.45.45 0 0 0 0 .9h6.3a.45.45 0 0 0 0-.9zM6.432 4.5a1.223 1.223 0 0 0 1.285 1.224v.427h.434v-.425c.787-.06 1.257-.478 1.259-1.121 0-.567-.381-.939-1.129-1.108l-.108-.025.007-.919A.491.491 0 0 1 8.6 3h.76a1.177 1.177 0 0 0-1.172-1.124v-.432h-.43v.428A1.2 1.2 0 0 0 6.532 3c0 .517.343.862 1.026 1.026l.176.045-.009.972A.577.577 0 0 1 7.2 4.5zm1.727.548l.007-.858c.312.1.44.22.442.416 0 .222-.169.388-.448.443zM7.74 3.36c-.27-.093-.394-.223-.391-.41 0-.2.145-.35.4-.4l-.007.812z" data-name="Subtraction 1" transform="translate(48 48)" style="fill:#fff"/>
    </g>
</svg>
