<svg xmlns="http://www.w3.org/2000/svg" id="prefix__Layer_2" width="63.544" height="50.897" data-name="Layer 2" viewBox="0 0 63.544 50.897">
    <defs>
        <style>
            .prefix__cls-2{fill:#eaad92}.prefix__cls-3{fill:#d9dadb}.prefix__cls-4{fill:#eceded}
        </style>
    </defs>
    <g id="prefix__Layer_1" data-name="Layer 1">
        <path id="prefix__Path_151" d="M60.671 9.952a22.4 22.4 0 0 0-7.19-8.226C50.645-.1 47.932-.493 45.839.629L41.426 3a7.025 7.025 0 0 0-3.206 4.942c-4.29.307-10.212 1.009-12.442 2.592l-.028.021a10.769 10.769 0 0 0-3.136 6c-1.24 1.209-2.329 2.339-2.853 2.89-1.77 1.858-2.9 2.965-3.379 3.426q-.5-.381-1.011-.71c-2.835-1.829-5.549-2.219-7.641-1.1l-4.414 2.372C1.224 24.555.047 27.031 0 30.406a22.4 22.4 0 0 0 2.876 10.54 22.394 22.394 0 0 0 7.19 8.226 9.53 9.53 0 0 0 5.055 1.728 5.409 5.409 0 0 0 2.586-.629l4.412-2.371a5.822 5.822 0 0 0 2.621-3.092A3.765 3.765 0 0 0 26.6 46a6.034 6.034 0 0 0 1.516.256 2.954 2.954 0 0 0 2.462 1.018 6.21 6.21 0 0 0 3.184.592h.009a11.018 11.018 0 0 0 6.029-2.157 18.8 18.8 0 0 0 2.328-1.85 2.156 2.156 0 0 0 .828.161 3.846 3.846 0 0 0 2.561-1.23 5.438 5.438 0 0 0 1.683-2.708 6.009 6.009 0 0 0 2.573-3.591 4.422 4.422 0 0 0 1.061-.79 4.51 4.51 0 0 0 1.282-3.116 5.108 5.108 0 0 0 1.516-2.143 5.313 5.313 0 0 0 2.187-.612l4.413-2.367c2.092-1.122 3.27-3.6 3.314-6.972a22.375 22.375 0 0 0-2.875-10.539z" data-name="Path 151" transform="translate(0 -.001)" style="fill:#262a2d"/>
        <path id="prefix__Path_152" d="M102.666 83.968a57.4 57.4 0 0 1 7.167-6.634 1.142 1.142 0 0 1 .785-.166c1.538.215 5.481.752 8.862 1.083a2.474 2.474 0 0 1 1.786 1.043c1.224 1.745 3.429 4.944 4.439 6.759a.277.277 0 0 1-.062.346 4.69 4.69 0 0 1-1.833 1 2 2 0 0 1-2.088-.721c-1.123-1.279-1.65-1.96-1.894-2.306a1.553 1.553 0 0 0-1.366-.655l-5.863.332a.531.531 0 0 0-.469.71c.017.046 1.632 4.615-.982 7.285l-.614.626a32.134 32.134 0 0 0-4.307 4.9 26.731 26.731 0 0 0-1.53-3.394 24.108 24.108 0 0 0-5.348-6.841c.53-.511 1.628-1.594 3.317-3.367z" class="prefix__cls-2" data-name="Path 152" transform="translate(-82.136 -63.788)"/>
        <path id="prefix__Path_153" d="M20.184 163.721a8.49 8.49 0 0 1-4.476-1.555 21.321 21.321 0 0 1-6.83-7.836 21.33 21.33 0 0 1-2.748-10.024c.04-2.97 1.018-5.119 2.755-6.05a4.363 4.363 0 0 1 2.088-.5 8.49 8.49 0 0 1 4.476 1.555 21.321 21.321 0 0 1 6.83 7.836 21.325 21.325 0 0 1 2.748 10.025c-.039 2.97-1.018 5.119-2.755 6.05a4.361 4.361 0 0 1-2.088.499z" class="prefix__cls-3" data-name="Path 153" transform="translate(-5.067 -113.888)"/>
        <path id="prefix__Path_154" d="M53.364 149.569l-1.578.846a10.218 10.218 0 0 0 .981-4.516 22.4 22.4 0 0 0-2.874-10.541 22.394 22.394 0 0 0-7.19-8.226 10.212 10.212 0 0 0-4.3-1.681l1.578-.846c1.736-.932 4.068-.558 6.564 1.053a21.323 21.323 0 0 1 6.83 7.836 21.32 21.32 0 0 1 2.748 10.025 11.293 11.293 0 0 1-.247 2.278l-.007.023c0 .008-.006.019-.008.028s0 .013 0 .02 0 .022-.006.033a.054.054 0 0 1 0 .007.1.1 0 0 0 0 .01 5.292 5.292 0 0 1-2.491 3.651z" class="prefix__cls-4" data-name="Path 154" transform="translate(-31.746 -102.603)"/>
        <path id="prefix__Path_155" d="M148.822 88.665h-.009c-.238 0-.456-.006-.656-.017 3.613-1.368 7.041-5.195 7.216-5.391a.531.531 0 0 0-.794-.7 26.994 26.994 0 0 1-2.977 2.785c-2.218 1.774-4.215 2.717-5.778 2.73h-.069a3.257 3.257 0 0 1-1.071-.124c3.775-1.041 8.16-6.429 8.364-6.682a.531.531 0 0 0-.826-.667 34.206 34.206 0 0 1-3.1 3.271c-2.274 2.086-4.218 3.189-5.622 3.189h-.026a4.871 4.871 0 0 1-1.5-.211 2.631 2.631 0 0 1-1.43-.964c.223.022.468.037.732.037a6.319 6.319 0 0 0 2.928-.707c1.063-.545 6.123-5.486 6.7-6.046a.531.531 0 1 0-.743-.758 78.118 78.118 0 0 1-6.437 5.861 5.519 5.519 0 0 1-3.4.52 12.841 12.841 0 0 0 .176-2v-.15a4.854 4.854 0 0 0 2-1.1c.983-.749 4.983-4.791 5.153-4.963a.531.531 0 1 0-.755-.747c-1.421 1.436-4.3 4.3-5.042 4.864a5.406 5.406 0 0 1-1.386.866 20.308 20.308 0 0 0-.846-4.522l.019-.036c.641-1.5 2.124-3.008 4.58-5.511l.615-.627a6.98 6.98 0 0 0 1.781-5.42 11.786 11.786 0 0 0-.358-2.3l5.193-.295a.5.5 0 0 1 .438.208c.376.533 1.037 1.339 1.963 2.394a3.052 3.052 0 0 0 3.127 1.054 5.74 5.74 0 0 0 2.276-1.224 1.34 1.34 0 0 0 .307-1.675c-1.033-1.857-3.261-5.09-4.5-6.852a3.536 3.536 0 0 0-2.552-1.49c-3.361-.329-7.286-.863-8.818-1.078a2.2 2.2 0 0 0-1.514.329 26.225 26.225 0 0 0-3 2.476 9.163 9.163 0 0 1 2.3-3.746c.954-.668 3.38-1.585 9.509-2.183 3.449-.337 6.577-.419 7.069-.43a15.076 15.076 0 0 1 8.9 7.136 11.152 11.152 0 0 1 1.652 6.79 6.625 6.625 0 0 1-.552 2 3.536 3.536 0 0 0-2.463-.258 3.442 3.442 0 0 0-2.244 3.525 2.794 2.794 0 0 0-1.01.681 5.091 5.091 0 0 0-1.106 3.842 3.346 3.346 0 0 0-1.074.731 4.849 4.849 0 0 0-1.217 3.7 2.9 2.9 0 0 0-1.059.882 8.683 8.683 0 0 0-1.3 5.168c-.763.725-4.213 3.833-7.764 3.835z" data-name="Path 155" transform="translate(-115.055 -41.861)" style="fill:#ffd5c0"/>
        <path id="prefix__Path_156" d="M247.993 222.676c-1.148 1.059-1.895 1-2.223.886.066-4.077 1.442-4.889 1.819-5.035.669.251 1.881.848 1.791 1.848a4.106 4.106 0 0 1-1.387 2.301z" class="prefix__cls-2" data-name="Path 156" transform="translate(-203.191 -180.668)"/>
        <path id="prefix__Path_157" d="M261.527 198.327a3.62 3.62 0 0 0-2.175-1.884c-.074-2.685 1.329-3.359 1.757-3.5a3.352 3.352 0 0 1 2.062 2.7 4.523 4.523 0 0 1-1.644 2.684z" class="prefix__cls-2" data-name="Path 157" transform="translate(-214.417 -159.514)"/>
        <path id="prefix__Path_158" d="M275 173.337a4.383 4.383 0 0 0-2.443-2.806c-.123-2.863 1.133-3.459 1.539-3.577A8.621 8.621 0 0 1 276 168.09a4.375 4.375 0 0 1 .381 2.252v.016a3.439 3.439 0 0 1-1.381 2.979z" class="prefix__cls-2" data-name="Path 158" transform="translate(-225.332 -138.03)"/>
        <path id="prefix__Path_159" d="M287.507 152.284a5.384 5.384 0 0 0-.214-1.012 2.247 2.247 0 0 0-.368-.747c-.012-.014-.024-.027-.037-.039a8.491 8.491 0 0 0-2.1-1.3 2.4 2.4 0 0 1 1.468-2.553 2.628 2.628 0 0 1 2.034.367c.183.2.18.236.131.824-.033.4-.083 1.007-.083 1.94a4.089 4.089 0 0 1-.831 2.52z" class="prefix__cls-2" data-name="Path 159" transform="translate(-235.449 -121.164)"/>
        <path id="prefix__Path_160" d="M241.47 41.75a7.407 7.407 0 0 0 .749-2.48 12.134 12.134 0 0 0-1.77-7.514 16.36 16.36 0 0 0-6.138-6.2 13.682 13.682 0 0 0-3.518-1.466.518.518 0 0 0-.123-.012c-.179 0-1.664.033-3.714.158a5.84 5.84 0 0 1 2.608-3.938c1.737-.931 4.068-.557 6.564 1.053a21.322 21.322 0 0 1 6.83 7.837 21.323 21.323 0 0 1 2.748 10.025c-.039 2.97-1.018 5.119-2.755 6.05a4.185 4.185 0 0 1-1.413.454 5.511 5.511 0 0 0 .051-.749c0-.89.046-1.447.079-1.854a1.862 1.862 0 0 0-.198-1.364z" class="prefix__cls-4" data-name="Path 160" transform="translate(-187.636 -16.365)"/>
        <path id="prefix__Path_161" d="M276.092 25.552c-.04 2.97-1.018 5.119-2.755 6.05l-1.578.846a10.218 10.218 0 0 0 .982-4.516 22.4 22.4 0 0 0-2.874-10.541 22.394 22.394 0 0 0-7.19-8.226 10.21 10.21 0 0 0-4.3-1.681l1.578-.846c1.737-.931 4.068-.557 6.564 1.053a21.323 21.323 0 0 1 6.83 7.836 21.322 21.322 0 0 1 2.743 10.025z" class="prefix__cls-3" data-name="Path 161" transform="translate(-213.61 -5.075)"/>
    </g>
</svg>
