<svg xmlns="http://www.w3.org/2000/svg" width="14.554" height="14" viewBox="0 0 14.554 14">
    <g id="prefix__noun_product_676479" transform="translate(34 -187.745)">
        <path id="prefix__Path_47" d="M18.554 8.456a.791.791 0 0 0-.563-.758l-6.268-1.887a1.549 1.549 0 0 0-.892 0L8.1 6.633v3.627l-1.443.271V7.067l-2.1.633A.791.791 0 0 0 4 8.456v8.579a.791.791 0 0 0 .557.758l6.274 1.887a1.549 1.549 0 0 0 .892 0L18 17.792a.791.791 0 0 0 .557-.758zm-1.582 7.992l-4.9 1.476V7.567l4.9 1.478zm-4.156-4.259a.372.372 0 0 1 0-.158.3.3 0 0 1 .065-.127.19.19 0 0 1 .114-.063l1.063-.158.441-1.207a.258.258 0 0 1 .032-.062.18.18 0 0 1 .041-.041.141.141 0 0 1 .046-.022.133.133 0 0 1 .049 0 .149.149 0 0 1 .049.016.188.188 0 0 1 .046.033.247.247 0 0 1 .04.051.329.329 0 0 1 .03.068l.408 1.226.853.221a.147.147 0 0 1 .082.06.29.29 0 0 1 .046.109.375.375 0 0 1 0 .13.29.29 0 0 1-.044.119l-.6.894.146 1.266a.373.373 0 0 1 0 .114.329.329 0 0 1-.035.1.236.236 0 0 1-.057.07.138.138 0 0 1-.07.032h-.051l-.021-.011-.813-.536-.887.736-.024.017-.024.013-.024.009h-.024a.158.158 0 0 1-.085-.016.2.2 0 0 1-.07-.062.277.277 0 0 1-.044-.1.362.362 0 0 1 0-.127l.182-1.424-.791-1.008a.316.316 0 0 1-.069-.162z" data-name="Path 47" transform="translate(-38 182)" style="fill:#0f62fe"/>
    </g>
</svg>
