<svg xmlns="http://www.w3.org/2000/svg" width="20" height="20" viewBox="0 0 20 20">
    <g id="prefix__ios-cog" transform="translate(-48 -50.279)">
        <path id="prefix__Path_7" d="M67.649 59.613l-1.254-.2a.385.385 0 0 1-.317-.331c-.024-.156-.048-.311-.082-.462a.394.394 0 0 1 .187-.418l1.11-.623a.392.392 0 0 0 .187-.481l-.192-.535a.381.381 0 0 0-.452-.243l-1.245.243a.385.385 0 0 1-.413-.2q-.108-.2-.231-.409a.4.4 0 0 1 .034-.462l.831-.968a.39.39 0 0 0 .014-.516l-.36-.438a.376.376 0 0 0-.5-.073l-1.091.661a.38.38 0 0 1-.452-.044c-.115-.1-.235-.2-.356-.3a.391.391 0 0 1-.12-.443l.452-1.2a.392.392 0 0 0-.159-.491l-.49-.287a.38.38 0 0 0-.5.107l-.8 1.012a.341.341 0 0 1-.408.122s-.269-.112-.471-.18a.386.386 0 0 1-.264-.374l.019-1.284a.391.391 0 0 0-.317-.409l-.557-.1a.388.388 0 0 0-.437.272l-.415 1.214a.384.384 0 0 1-.375.263h-.47a.388.388 0 0 1-.375-.263l-.413-1.216a.388.388 0 0 0-.437-.272l-.557.1a.391.391 0 0 0-.317.409l.019 1.284a.389.389 0 0 1-.264.374c-.111.044-.351.136-.466.18a.38.38 0 0 1-.423-.141l-.793-.987a.38.38 0 0 0-.5-.107l-.49.287a.387.387 0 0 0-.159.491l.452 1.2a.394.394 0 0 1-.12.443c-.12.1-.24.2-.356.3a.38.38 0 0 1-.452.044l-1.076-.671a.381.381 0 0 0-.5.073l-.36.438a.39.39 0 0 0 .014.516l.831.968a.391.391 0 0 1 .034.462q-.123.2-.231.409a.389.389 0 0 1-.413.2l-1.245-.243a.386.386 0 0 0-.452.243l-.192.535a.392.392 0 0 0 .187.481l1.11.623a.387.387 0 0 1 .187.418c-.029.156-.058.306-.082.462a.39.39 0 0 1-.317.331l-1.254.2a.391.391 0 0 0-.341.384v.569a.38.38 0 0 0 .341.384l1.254.2a.385.385 0 0 1 .317.331c.024.156.048.311.082.462a.394.394 0 0 1-.187.418l-1.11.623a.392.392 0 0 0-.187.481L48.7 64a.381.381 0 0 0 .452.243L50.4 64a.385.385 0 0 1 .413.2q.108.2.231.409a.4.4 0 0 1-.034.462l-.831.968a.39.39 0 0 0-.014.516l.36.438a.376.376 0 0 0 .5.073l1.091-.661a.38.38 0 0 1 .452.044c.115.1.235.2.356.3a.391.391 0 0 1 .12.443l-.452 1.2a.392.392 0 0 0 .159.491l.49.287a.38.38 0 0 0 .5-.107l.807-1a.35.35 0 0 1 .394-.126c.163.068.274.107.476.175a.386.386 0 0 1 .264.374l-.019 1.284a.391.391 0 0 0 .317.409l.557.1a.388.388 0 0 0 .439-.279l.413-1.216a.384.384 0 0 1 .375-.263h.47a.388.388 0 0 1 .375.263L59.024 70a.388.388 0 0 0 .437.272l.557-.1a.391.391 0 0 0 .317-.409l-.019-1.284a.386.386 0 0 1 .264-.374c.2-.068.336-.122.461-.17a.332.332 0 0 1 .4.1l.817 1.016a.38.38 0 0 0 .5.107l.49-.287a.387.387 0 0 0 .159-.491l-.452-1.2a.394.394 0 0 1 .12-.443c.12-.1.24-.2.356-.3a.38.38 0 0 1 .452-.044l1.091.661a.381.381 0 0 0 .5-.073l.36-.438a.39.39 0 0 0-.014-.516l-.831-.968a.391.391 0 0 1-.034-.462q.123-.2.231-.409a.389.389 0 0 1 .413-.2l1.245.243a.386.386 0 0 0 .452-.243l.192-.535a.392.392 0 0 0-.187-.481l-1.11-.622a.387.387 0 0 1-.187-.418c.029-.156.058-.306.082-.462a.39.39 0 0 1 .317-.331l1.254-.2a.391.391 0 0 0 .343-.383v-.569a.4.4 0 0 0-.351-.374zM54.43 65.191a.769.769 0 0 1-1.2.175 7.069 7.069 0 0 1-.014-10.145.766.766 0 0 1 1.2.17l2.691 4.7a.4.4 0 0 1 0 .389zm10.293-3.268A6.935 6.935 0 0 1 58 67.287a6.786 6.786 0 0 1-1.951-.282.779.779 0 0 1-.447-1.133l2.677-4.713a.381.381 0 0 1 .332-.195h5.368a.774.774 0 0 1 .75.958zm-.745-2.32h-5.373a.375.375 0 0 1-.332-.195l-2.7-4.7a.783.783 0 0 1 .442-1.138A6.786 6.786 0 0 1 58 53.281a6.935 6.935 0 0 1 6.728 5.364.774.774 0 0 1-.75.955z" data-name="Path 7" style="fill:#fff"/>
    </g>
</svg>
