<svg xmlns="http://www.w3.org/2000/svg" width="16" height="20.012" viewBox="0 0 16 20.012">
    <g id="prefix__ios-notifications" transform="translate(-96.153 -55.897)">
        <path id="prefix__Path_4" d="M104.143 75.909a2.358 2.358 0 0 0 2.406-2.651h-4.817a2.359 2.359 0 0 0 2.411 2.651zm7.808-5.192c-.77-1.015-2.286-1.611-2.286-6.157 0-4.667-2.061-6.542-3.981-6.992-.18-.045-.31-.105-.31-.3v-.145a1.22 1.22 0 1 0-2.441 0v.145c0 .185-.13.25-.31.3-1.926.455-3.981 2.326-3.981 6.992 0 4.546-1.515 5.137-2.286 6.157a.993.993 0 0 0 .8 1.591h14.01a.993.993 0 0 0 .785-1.591z" data-name="Path 4" style="fill:#fff"/>
    </g>
</svg>
