<svg xmlns="http://www.w3.org/2000/svg" width="16" height="14.609" viewBox="0 0 16 14.609">
    <defs>
        <style>
            .prefix__cls-1{fill:#fff}
        </style>
    </defs>
    <g id="prefix__wallet-43" transform="translate(-1 -3)">
        <path id="prefix__Path_26562" d="M11.884 13.783A1.967 1.967 0 0 1 10.07 11.7a1.967 1.967 0 0 1 1.814-2.087H14V6.13a.328.328 0 0 0-.3-.348H2.512A.984.984 0 0 1 1.6 4.739.984.984 0 0 1 2.512 3.7h8.163v1.387h.6V3.348a.328.328 0 0 0-.3-.348H2.512A1.639 1.639 0 0 0 1 4.739v10.435a2.3 2.3 0 0 0 2.116 2.435H13.7a.328.328 0 0 0 .3-.348v-3.478z" class="prefix__cls-1" data-name="Path 26562"/>
        <path id="prefix__Path_26563" d="M46 24h-9a4 4 0 0 0 0 8h9a1 1 0 0 0 1-1v-6a1 1 0 0 0-1-1z" class="prefix__cls-1" data-name="Path 26563" transform="translate(-30 -16.918)"/>
    </g>
</svg>
