<svg xmlns="http://www.w3.org/2000/svg" width="42.401" height="47.284" viewBox="0 0 42.401 47.284">
    <defs>
        <style>
            .prefix__cls-1,.prefix__cls-3{stroke:#002d9c;stroke-miterlimit:10;stroke-width:2px}.prefix__cls-1{fill:rgba(90,200,250,.4)}.prefix__cls-3{fill:none}
        </style>
    </defs>
    <g id="prefix__Group_17207" data-name="Group 17207" transform="translate(-292.586 -204.677)">
        <path id="prefix__Path_26578" d="M323.149 212.958c.533 0 3.3-5.041 3.907-5.841.211-.277.253-.341.093-.54s-.523-.151-.921-.035a5.122 5.122 0 0 1-2.693-.291c-2.071-.6-5.057-1.432-6.259.751-.116.212-.036.055.2.311.63.7 3.284 5.645 3.825 5.645z" class="prefix__cls-1" data-name="Path 26578" transform="translate(-5.037)"/>
        <path id="prefix__Path_26579" d="M308.953 227.82zm23.262-3.412c-.663-2.835-2.067-5.806-8.346-9.611a6.549 6.549 0 0 0-5.967-.253c-6.448 3.449-7.873 7.029-8.537 9.864a15.344 15.344 0 0 0-.412 3.4 11.768 11.768 0 1 0 23.53-.006 16.161 16.161 0 0 0-.268-3.394z" class="prefix__cls-1" data-name="Path 26579" transform="translate(-3.243 -1.813)"/>
        <path id="prefix__Path_26580" fill="#fff" d="M329.795 237.262l-4.606 2.185-.252.1a1.82 1.82 0 0 0-1.657-.966h-4.7c-1.077 0-2.714-1.566-4.011-1.566h-4.6c-1.893 0-3.583 1.55-4.536 2.437-1.472 1.472-4.43 4.445-4.43 4.445l7.2 7.206c1.177-1.176 2.562-2.342 3.765-2.342h9.4a5.535 5.535 0 0 0 3.963-1.487l7.793-7.793 2.215-5.537c-1.357-1.355-4.439.088-5.544 3.318z" data-name="Path 26580" transform="translate(-1.518 -6.041)"/>
        <path id="prefix__Path_26581" d="M315.1 243.275h8.183a2.048 2.048 0 0 0 2-2.32v-.015c0-1.3-.7-2.364-2-2.364h-4.7c-1.077 0-2.714-1.566-4.011-1.566h-4.6c-1.893 0-3.583 1.55-4.536 2.437-1.472 1.472-4.43 4.445-4.43 4.445l7.2 7.206c1.177-1.176 2.562-2.342 3.765-2.342h9.4a5.535 5.535 0 0 0 3.963-1.487l7.793-7.793 2.215-5.537c-1.349-1.35-4.429.092-5.537 3.323l-4.606 2.185" class="prefix__cls-3" data-name="Path 26581" transform="translate(-1.518 -6.041)"/>
        <path id="prefix__Rectangle_2704" fill="#fff" stroke="#002d9c" stroke-miterlimit="10" stroke-width="2px" d="M0 0H6.645V14.397H0z" data-name="Rectangle 2704" transform="rotate(-45 437.149 -234.706)"/>
        <path id="prefix__Line_146" d="M1.566 1.566L0 0" class="prefix__cls-3" data-name="Line 146" transform="translate(298.699 239.583)"/>
        <g id="prefix__Group_17206" data-name="Group 17206" transform="translate(315.144 216.873)">
            <path id="prefix__Path_26582" d="M321 229.265a1.566 1.566 0 0 0 1.566 1.566h1.566a1.566 1.566 0 0 0 1.566-1.566v-.438a1.566 1.566 0 0 0-1.071-1.486l-2.557-.852A1.567 1.567 0 0 1 321 225v-.438a1.566 1.566 0 0 1 1.566-1.562h1.566a1.566 1.566 0 0 1 1.566 1.566" class="prefix__cls-3" data-name="Path 26582" transform="translate(-321 -220.651)"/>
            <path id="prefix__Line_147" d="M0 2.349L0 0" class="prefix__cls-3" data-name="Line 147" transform="translate(2.349)"/>
            <path id="prefix__Line_148" d="M0 0L0 2.349" class="prefix__cls-3" data-name="Line 148" transform="translate(2.349 10.18)"/>
        </g>
    </g>
</svg>
