<svg xmlns="http://www.w3.org/2000/svg" width="22.329" height="15.3" viewBox="0 0 22.329 15.3">
    <g id="prefix__communication_-chat_-conversation_-messaging_-text" data-name="communication,-chat,-conversation,-messaging,-text" transform="translate(.15 .15)">
        <path id="prefix__Path_26638" d="M20.018 2.7H10.76c-1.606 0-2.908.957-2.91 2.137V6.1H3.81C2.2 6.1.9 7.053.9 8.232v5.1c0 1.179 1.3 2.135 2.91 2.137h.09v1.375a.764.764 0 0 0 .343.611 1.494 1.494 0 0 0 1.661 0l2.7-1.985h4.463c1.607 0 2.909-.957 2.91-2.137v-.7l1.948 1.436a1.512 1.512 0 0 0 1.288.176.891.891 0 0 0 .717-.8v-1.371h.087c1.607 0 2.909-.957 2.91-2.137v-5.1c0-1.179-1.3-2.135-2.911-2.137zm-5.23 10.63c0 .7-.771 1.262-1.72 1.262h-4.71a.72.72 0 0 0-.422.128l-2.849 2.122v-1.813c0-.241-.267-.437-.6-.437H3.81c-.949 0-1.718-.565-1.72-1.262v-5.1c0-.7.771-1.262 1.72-1.262h9.258c.949 0 1.72.566 1.72 1.262zm6.95-3.392c0 .7-.771 1.262-1.72 1.262h-.683c-.329 0-.6.2-.6.437l.021 1.807-2.783-2.052v-3.16c0-1.179-1.3-2.135-2.91-2.137H9.038V4.841c0-.7.771-1.262 1.72-1.262h9.258c.949 0 1.72.566 1.72 1.262v5.1z" data-name="Path 26638" transform="translate(-.9 -2.704)" style="stroke:#000;stroke-width:.3px"/>
    </g>
</svg>
