<svg xmlns="http://www.w3.org/2000/svg" width="16" height="16" viewBox="0 0 16 16">
    <g id="prefix__Double-Arrow-Left-3" transform="rotate(180 10 10)">
        <g id="prefix___02-Sign-Control_Double-Arrow-Left-3" data-name="02-Sign-Control/Double-Arrow-Left-3" transform="translate(4 4)">
            <path id="prefix__Double-Arrow-Left-3-2" d="M19.2 12a7.2 7.2 0 1 0-7.2 7.2 7.2 7.2 0 0 0 7.2-7.2zm.8 0a8 8 0 1 1-8-8 8 8 0 0 1 8 8zm-5.724 3.31a.4.4 0 1 1-.566.566l-2.893-2.892a1.4 1.4 0 0 1 0-1.979L13.7 8.111a.4.4 0 1 1 .566.565l-2.884 2.894a.6.6 0 0 0 0 .848l2.894 2.892zm-2.8-.4a.4.4 0 1 1-.566.566l-2.493-2.492a1.4 1.4 0 0 1 0-1.979L10.9 8.511a.4.4 0 1 1 .567.565L8.982 11.57a.6.6 0 0 0 0 .848l2.494 2.492z" data-name="Double-Arrow-Left-3" transform="translate(-4 -4)" style="fill:#0f62fe"/>
        </g>
    </g>
</svg>
