<svg xmlns="http://www.w3.org/2000/svg" id="prefix__gift_-reward_-bonus_-present_-christmas" width="13" height="14.857" data-name="gift,-reward,-bonus,-present,-christmas" viewBox="0 0 13 14.857">
    <path id="prefix__Path_26639" d="M13.387 5.093h-.2a2.213 2.213 0 0 0 .523-1.428A2.3 2.3 0 0 0 11.378 1.4a2.347 2.347 0 0 0-1.9.951 2.355 2.355 0 0 0-2.167-.936 2.319 2.319 0 0 0-1.886 1.4 2.213 2.213 0 0 0 .351 2.28h-.2a2.562 2.562 0 0 0-2.594 2.52v6.109a2.563 2.563 0 0 0 2.595 2.523h3.808a.439.439 0 0 0 .193 0h3.809a2.562 2.562 0 0 0 2.595-2.523V7.615a2.562 2.562 0 0 0-2.595-2.522zM9.05 15.407H5.577a1.709 1.709 0 0 1-1.73-1.682v-2.634h5.2zm0-5.157h-5.2V7.615a1.709 1.709 0 0 1 1.73-1.682h2.853L6.9 7.423a.412.412 0 0 0 0 .595.441.441 0 0 0 .612 0L9.05 6.523v3.727zm0-5.162H7.586a1.446 1.446 0 0 1-1.464-1.423 1.464 1.464 0 0 1 2.927 0zm.865-1.423a1.464 1.464 0 0 1 2.927 0 1.446 1.446 0 0 1-1.464 1.423H9.914V3.665zm5.2 10.059a1.709 1.709 0 0 1-1.73 1.682H9.914V11.09h5.2zm0-3.474h-5.2V6.523l1.537 1.494a.44.44 0 0 0 .423.121.427.427 0 0 0 .312-.3.413.413 0 0 0-.124-.412L10.53 5.933h2.856a1.709 1.709 0 0 1 1.73 1.682v2.635z" data-name="Path 26639" transform="translate(-2.982 -1.401)" style="fill:#fff"/>
</svg>
