<svg xmlns="http://www.w3.org/2000/svg" width="11.999" height="14" viewBox="0 0 11.999 14">
    <g id="prefix__ios-refresh" transform="translate(-64 -32.01)">
        <path id="prefix__Path_51" d="M75.532 40.035a.466.466 0 0 0-.466.425 5.073 5.073 0 1 1-5.188-5.466.122.122 0 0 1 .128.125v1.572a.5.5 0 0 0 .769.422l3.006-2.1a.5.5 0 0 0 0-.847l-3-2.075a.5.5 0 0 0-.769.422v1.428a.123.123 0 0 1-.122.125A5.975 5.975 0 1 0 76 40.538a.465.465 0 0 0-.468-.503z" data-name="Path 51" style="fill:#4d5358"/>
    </g>
</svg>
