<svg xmlns="http://www.w3.org/2000/svg" id="prefix__ios-print" width="17.511" height="17.511" viewBox="0 0 17.511 17.511">
    <defs>
        <style>
            .prefix__cls-1{fill:#0f62fe}
        </style>
    </defs>
    <path id="prefix__Path_78" d="M112.673 56.419v8.419a.675.675 0 0 0 .673.673h9.429a.675.675 0 0 0 .673-.673v-8.419a.675.675 0 0 0-.673-.673h-9.429a.675.675 0 0 0-.673.673zM123.449 48h-10.776a.675.675 0 0 0-.673.673v.842a.169.169 0 0 0 .168.168h11.786a.169.169 0 0 0 .168-.168v-.842a.675.675 0 0 0-.673-.673z" class="prefix__cls-1" data-name="Path 78" transform="translate(-109.306 -48)"/>
    <path id="prefix__Path_79" d="M64.185 112H49.368A1.347 1.347 0 0 0 48 113.317v7.341a1.383 1.383 0 0 0 1.368 1.36h.652a.338.338 0 0 0 .337-.337v-4.462a1.177 1.177 0 0 1 1.179-1.179h10.439a1.177 1.177 0 0 1 1.179 1.179v4.462a.338.338 0 0 0 .337.337h.695a1.347 1.347 0 0 0 1.326-1.36v-7.341A1.311 1.311 0 0 0 64.185 112z" class="prefix__cls-1" data-name="Path 79" transform="translate(-48 -109.306)"/>
</svg>
