<svg xmlns="http://www.w3.org/2000/svg" width="12.272" height="11.332" viewBox="0 0 12.272 11.332">
    <g id="prefix__ios-funnel" transform="translate(-48 -63.9)">
        <path id="prefix__Path_49" d="M48 64.587a.723.723 0 0 0 .165.463l4.49 5.3a.723.723 0 0 1 .165.463v3.157a.683.683 0 0 0 .431.649l1.622.584a.446.446 0 0 0 .578-.451v-3.937a.723.723 0 0 1 .165-.463l4.49-5.3a.723.723 0 0 0 .165-.463.66.66 0 0 0-.631-.684H48.631a.665.665 0 0 0-.631.682z" data-name="Path 49" style="fill:#fff"/>
    </g>
</svg>
