<svg xmlns="http://www.w3.org/2000/svg" width="24.563" height="13.305" viewBox="0 0 24.563 13.305">
    <g id="prefix__ic_group_add_48px" transform="translate(0 -10)">
        <path id="prefix__Path_26610" fill="#fff" d="M8.188 15.117H5.117v-3.07H3.07v3.07H0v2.047h3.07v3.07h2.047v-3.07h3.07zm10.234 1.023a3.07 3.07 0 0 0 0-6.141 2.99 2.99 0 0 0-.936.148 5.072 5.072 0 0 1 0 5.844 2.99 2.99 0 0 0 .936.15zm-5.117 0a3.07 3.07 0 1 0-3.07-3.07 3.064 3.064 0 0 0 3.065 3.071zm6.775 2.211a3.779 3.779 0 0 1 1.412 2.907V23.3h3.07v-2.042c.001-1.576-2.43-2.543-4.482-2.907zm-6.78-.163c-2.047 0-6.141 1.023-6.141 3.07V23.3h12.286v-2.042c0-2.047-4.093-3.07-6.145-3.07z" data-name="Path 26610"/>
    </g>
</svg>
