<svg xmlns="http://www.w3.org/2000/svg" width="16.305" height="10.49" viewBox="0 0 16.305 10.49">
    <g id="prefix__Mail-Send-2" transform="translate(-1.85 -9.85)">
        <g id="prefix___03-Communication_Mail-Send-2" data-name="03-Communication/Mail-Send-2" transform="translate(2 10)">
            <path id="prefix__Mail-Send-2-2" d="M5.669 12.371L4.59 17.547a1.456 1.456 0 0 0 1.31 1.747q2.135.168 4.128.167 2.181 0 4.508-.2a1.82 1.82 0 0 0 1.625-1.442l1.078-5.177a1.456 1.456 0 0 0-1.311-1.748q-2.054-.164-4.116-.167-2.18 0-4.52.2a1.82 1.82 0 0 0-1.626 1.441zM7.232 10.2Q9.6 10 11.814 10q2.015 0 4.173.169a2.184 2.184 0 0 1 1.967 2.622l-1.078 5.177a2.547 2.547 0 0 1-2.276 2.019q-2.28.2-4.571.2-2.021 0-4.185-.17A2.183 2.183 0 0 1 3.878 17.4l1.078-5.176A2.547 2.547 0 0 1 7.232 10.2zm3.868 5.623a.364.364 0 1 1 0-.728 1.11 1.11 0 0 0 .562-.126l5.179-2.453a.635.635 0 0 0 .243-.883 2.043 2.043 0 0 0-.258-.337.364.364 0 1 1 .472-.553 2.51 2.51 0 0 1 .429.55 1.365 1.365 0 0 1-.558 1.872l-5.179 2.453a1.8 1.8 0 0 1-.89.205zm0-.728a.364.364 0 1 1 0 .728 1.89 1.89 0 0 1-.9-.221l-4.185-2.485a1.4 1.4 0 0 1-.566-1.9 1.882 1.882 0 0 1 .517-.549.364.364 0 1 1 .356.635 1.642 1.642 0 0 0-.235.263.671.671 0 0 0 .286.913l4.179 2.485a1.162 1.162 0 0 0 .548.131zm-8.736 2.911a.364.364 0 1 1 0-.728h6.55a.364.364 0 1 1 0 .728zm0-2.184a.364.364 0 1 1 0-.728h4.367a.364.364 0 1 1 0 .728zm0-2.184a.364.364 0 1 1 0-.728h2.547a.364.364 0 1 1 0 .728z" data-name="Mail-Send-2" transform="translate(-2 -10)" style="fill:#fff;stroke:#fff;stroke-width:.3px"/>
        </g>
    </g>
</svg>
