<svg xmlns="http://www.w3.org/2000/svg" width="20.383" height="18.53" viewBox="0 0 20.383 18.53">
    <g id="prefix__Money-2" transform="translate(-2 -4)">
        <g id="prefix___05-Financial_Money-2" data-name="05-Financial/Money-2" transform="translate(2 4)">
            <path id="prefix__Money-2-2" d="M2.926 10.391v1.484c0 .23.447.583 1.311.871a12.529 12.529 0 0 0 3.785.519c.462 0 .916-.019 1.355-.057a.463.463 0 0 1 .08.923c-.465.04-.946.061-1.435.061a10.622 10.622 0 0 1-5.1-1.021v1.484c0 .23.447.583 1.311.871a12.529 12.529 0 0 0 3.785.519q.457 0 .9-.025a.463.463 0 0 1 .052.925q-.47.026-.952.026a10.622 10.622 0 0 1-5.1-1.021v1.484c0 .23.447.583 1.311.871a12.529 12.529 0 0 0 3.785.519c.462 0 .917-.019 1.356-.057a.463.463 0 0 1 .079.923c-.465.04-.946.061-1.435.061C4.7 19.75 2 18.851 2 17.434V6.319C2 4.9 4.7 4 8.022 4s6.022.9 6.022 2.316v2.817c-.047 1.4-2.726 2.279-6.022 2.279a10.622 10.622 0 0 1-5.096-1.021zm0-1.3c0 .23.447.583 1.311.871a12.529 12.529 0 0 0 3.785.519 12.524 12.524 0 0 0 3.785-.519c.863-.288 1.311-.641 1.311-.871V7.612a10.622 10.622 0 0 1-5.1 1.021 10.622 10.622 0 0 1-5.1-1.021zM15.9 19.75h-.211a1.642 1.642 0 0 1-1.642-1.642.463.463 0 1 1 .926 0 .716.716 0 0 0 .716.716h1.285a.779.779 0 0 0 .779-.779.992.992 0 0 0-.837-.98l-1.252-.2a1.919 1.919 0 0 1-1.617-1.9 1.706 1.706 0 0 1 1.706-1.706h.147V12.8a.463.463 0 1 1 .926 0v.463h.211a1.642 1.642 0 0 1 1.642 1.642.463.463 0 0 1-.926 0 .716.716 0 0 0-.716-.716H15.75a.779.779 0 0 0-.779.779.992.992 0 0 0 .837.98l1.252.2a1.919 1.919 0 0 1 1.617 1.9 1.706 1.706 0 0 1-1.706 1.706h-.147v.463a.463.463 0 1 1-.926 0zM8.022 7.706a12.524 12.524 0 0 1-3.785-.519c-.863-.288-1.311-.641-1.311-.871s.447-.583 1.311-.871a12.529 12.529 0 0 1 3.785-.519 12.524 12.524 0 0 1 3.785.519c.863.288 1.311.641 1.311.871s-.447.583-1.311.871a12.529 12.529 0 0 1-3.785.519zm2.316 8.8a6.022 6.022 0 1 1 6.022 6.024 6.022 6.022 0 0 1-6.022-6.022zm.926 0a5.1 5.1 0 1 0 5.1-5.1 5.1 5.1 0 0 0-5.099 5.102z" data-name="Money-2" transform="translate(-2 -4)" style="fill:#fff;fill-rule:evenodd"/>
        </g>
    </g>
</svg>
