<svg xmlns="http://www.w3.org/2000/svg" id="prefix__noun_product_676479" width="18" height="18" viewBox="0 0 18 18">
    <path id="prefix__Path_47" d="M22 9.23a1.013 1.013 0 0 0-.7-.974l-7.748-2.427a1.846 1.846 0 0 0-1.1 0L9.067 6.887v4.664l-1.784.349V7.444l-2.594.814A1.013 1.013 0 0 0 4 9.23v11.03a1.013 1.013 0 0 0 .689.974l7.76 2.426a1.846 1.846 0 0 0 1.1 0l7.76-2.426A1.013 1.013 0 0 0 22 20.26zm-1.957 10.275l-6.065 1.9V8.087l6.065 1.9zM14.9 14.03a.5.5 0 0 1 0-.2.386.386 0 0 1 .08-.163.233.233 0 0 1 .141-.081l1.315-.2.546-1.552a.336.336 0 0 1 .039-.079.228.228 0 0 1 .051-.053.171.171 0 0 1 .057-.028.158.158 0 0 1 .061 0 .179.179 0 0 1 .061.02.233.233 0 0 1 .057.043.316.316 0 0 1 .049.065.432.432 0 0 1 .037.087l.5 1.576 1.055.285a.183.183 0 0 1 .1.077.38.38 0 0 1 .057.14.5.5 0 0 1 0 .167.381.381 0 0 1-.055.153l-.745 1.149.18 1.627a.5.5 0 0 1 0 .146.434.434 0 0 1-.043.124.3.3 0 0 1-.07.089.167.167 0 0 1-.086.041h-.063l-.025-.014-.999-.695-1.1.946-.029.022-.029.016-.029.012h-.029a.189.189 0 0 1-.106-.02.246.246 0 0 1-.086-.079.363.363 0 0 1-.055-.128.484.484 0 0 1 0-.163l.225-1.831-.978-1.3a.415.415 0 0 1-.084-.199z" data-name="Path 47" transform="translate(-4 -5.745)" style="fill:#fff"/>
</svg>
