<?xml version="1.0" encoding="utf-8"?>
<!-- Generator: Adobe Illustrator 21.1.0, SVG Export Plug-In . SVG Version: 6.00 Build 0)  -->
<svg version="1.1" id="Layer_1" xmlns="http://www.w3.org/2000/svg" xmlns:xlink="http://www.w3.org/1999/xlink" x="0px" y="0px"
	 viewBox="0 0 512 512" style="enable-background:new 0 0 512 512;" xml:space="preserve">
<style type="text/css">
	.st0{fill:#618cde;}
</style>
<g>
	<g>
		<path class="st0" d="M470.6,328.3c-2-5.3-7.8-8-13.1-6l-83.8,30.9c-5.3,2-8,7.8-6,13.1c1.5,4.1,5.4,6.7,9.6,6.7
			c1.2,0,2.4-0.2,3.5-0.6l83.8-30.9C469.8,339.4,472.5,333.6,470.6,328.3z"/>
	</g>
</g>
<g>
	<g>
		<path class="st0" d="M470.6,369.7c-2-5.3-7.8-8-13.1-6l-83.8,30.9c-5.3,2-8,7.8-6,13.1c1.5,4.1,5.4,6.7,9.6,6.7
			c1.2,0,2.4-0.2,3.5-0.6l83.8-30.9C469.8,380.8,472.5,375,470.6,369.7z"/>
	</g>
</g>
<g>
	<g>
		<path class="st0" d="M470.6,287.1c-2-5.3-7.8-8-13.1-6L373.6,312c-5.3,2-8,7.8-6,13.1c1.5,4.1,5.4,6.7,9.6,6.7
			c1.2,0,2.4-0.2,3.5-0.6l83.8-30.9C469.8,298.3,472.5,292.4,470.6,287.1z"/>
	</g>
</g>
<g>
	<g>
		<path class="st0" d="M505.3,100.5L259.5,9.8c-2.3-0.8-4.8-0.8-7.1,0L6.7,100.5l0,0c-0.8,0.3-1.6,0.7-2.3,1.2
			c-2.7,1.9-4.4,5-4.4,8.4v291.8c0,4.3,2.7,8.1,6.7,9.6l245.8,90.7c1.1,0.4,2.3,0.6,3.5,0.6c1.2,0,2.4-0.2,3.5-0.6l0,0l245.8-90.7
			c4-1.5,6.7-5.3,6.7-9.6V110.1C512,105.8,509.3,102,505.3,100.5z M245.8,478L20.4,394.8V124.7l45.9,16.9v123.6
			c0,4.3,2.7,8.1,6.7,9.6l110.2,40.6c1.1,0.4,2.3,0.6,3.5,0.6c2.1,0,4.1-0.6,5.8-1.8c2.7-1.9,4.4-5,4.4-8.4V189.8l49,18.1L245.8,478
			L245.8,478z M256,189.9l-40-14.8l84.3-31.1c4-1.5,6.7-5.3,6.7-9.6s-2.7-8.1-6.7-9.6L190.2,84.3c-2.3-0.8-4.8-0.8-7.1,0L76.4,123.6
			l-36.7-13.6L256,30.3l216.3,79.8L256,189.9z M491.6,394.8L266.2,478V207.9l225.4-83.2V394.8z"/>
	</g>
</g>
</svg>
