<?xml version="1.0" encoding="utf-8"?>
<!-- Generator: Adobe Illustrator 21.1.0, SVG Export Plug-In . SVG Version: 6.00 Build 0)  -->
<svg version="1.1" id="Layer_1" xmlns="http://www.w3.org/2000/svg" xmlns:xlink="http://www.w3.org/1999/xlink" x="0px" y="0px"
	 viewBox="0 0 512 512" style="enable-background:new 0 0 512 512;" xml:space="preserve">
<style type="text/css">
	.st0{fill:#618cde;}
</style>
<path class="st0" d="M486.4,102.4H348.9c16.6-16.2,22.3-40.5,14.7-62.4C356,18.1,336.3,2.6,313.3,0.3C290.2-2,267.9,9.2,256,29.1
	C244.1,9.2,221.8-2,198.7,0.3C175.7,2.6,156,18.1,148.4,40c-7.6,21.9-1.9,46.2,14.7,62.4H25.6C11.5,102.4,0,113.9,0,128v68.3
	c0,14.1,11.5,25.6,25.6,25.6h17.1v264.5c0,14.1,11.5,25.6,25.6,25.6h375.5c14.1,0,25.6-11.5,25.6-25.6V221.9h17.1
	c14.1,0,25.6-11.5,25.6-25.6V128C512,113.9,500.5,102.4,486.4,102.4z M307.2,17.1c23.6,0,42.7,19.1,42.7,42.7
	c0,23.6-19.1,42.7-42.7,42.7s-42.7-19.1-42.7-42.7C264.6,36.2,283.6,17.1,307.2,17.1z M162.1,59.7c0-23.6,19.1-42.7,42.7-42.7
	s42.7,19.1,42.7,42.7c0,23.6-19.1,42.7-42.7,42.7C181.2,102.4,162.2,83.3,162.1,59.7z M59.7,486.4V221.9h162.1v273.1H68.3
	C63.6,494.9,59.7,491.1,59.7,486.4z M452.3,486.4c0,4.7-3.8,8.5-8.5,8.5H290.1V221.9h162.1V486.4z"/>
</svg>
