<?xml version="1.0" encoding="utf-8"?>
<!-- Generator: Adobe Illustrator 21.1.0, SVG Export Plug-In . SVG Version: 6.00 Build 0)  -->
<svg version="1.1" id="Layer_1" xmlns="http://www.w3.org/2000/svg" xmlns:xlink="http://www.w3.org/1999/xlink" x="0px" y="0px"
	 viewBox="0 0 512 512" style="enable-background:new 0 0 512 512;" xml:space="preserve">
<style type="text/css">
	.st0{fill:#618cde;}
</style>
<path class="st0" d="M510.9,351.8c-3.6-12.9-14.4-22.6-27.7-24.6V132.7h17c4.7,0,8.5-3.8,8.5-8.5V39.4c0-4.7-3.8-8.5-8.5-8.5h-373
	c-4.7,0-8.5,3.8-8.5,8.5v84.8c0,4.7,3.8,8.5,8.5,8.5h17v169.5h-8.5c-21,0-41.6,6-59.3,17.4v-42.8c0-4.7-3.8-8.5-8.5-8.5H8.5
	c-4.7,0-8.5,3.8-8.5,8.5v195c0,4.7,3.8,8.5,8.5,8.5h59.3c4.7,0,8.5-3.8,8.5-8.5v-42.8c17.7,11.4,38.3,17.4,59.3,17.4h139.2
	c9.6,0,19.2-1.3,28.6-3.8l183.5-49.2C505,388.5,515.7,369.9,510.9,351.8z M161.1,132.7h305.2v196l-98.4,26.4
	c-4.1-9.7-12.3-16.9-22.4-19.7l-114.2-30.6c-6.4-1.7-13.1-2.5-19.7-2.5h-50.4V132.7z M59.3,463.3H17v-178h42.4V463.3z M482.5,377
	L299,426.2c-7.9,2.1-16,3.2-24.2,3.2H135.6c-20.2,0-39.8-6.5-55.9-18.7l-3.4-2.5v-67.8l3.4-2.5c16.1-12.1,35.8-18.7,55.9-18.6h75.9
	c5.2,0,10.3,0.7,15.4,2L341,351.8c6.7,1.9,11.7,7.6,12.5,14.6c0.1,0.3,0.2,0.7,0.3,1c-0.1,0.4-0.2,0.7-0.2,1.1
	c0,1.4-0.2,2.8-0.6,4.1c-2,7.4-8.7,12.5-16.3,12.5c-1.5,0-3-0.2-4.4-0.6l-72.1-19.3c-3-0.9-6.2-0.1-8.4,2.1
	c-2.2,2.2-3.1,5.3-2.2,8.3c0.8,3,3.2,5.3,6.2,6l72.1,19.3c2.9,0.8,5.8,1.1,8.8,1.1c15.2,0,28.6-10.2,32.6-24.9
	c0.5-1.7,0.8-3.4,1-5.2l103.3-27.7c0.7-0.2,1.5-0.4,2.3-0.5c8.4-1.1,16.4,4.2,18.6,12.5c0.4,1.4,0.6,2.9,0.6,4.4
	C495.1,368.3,489.9,375,482.5,377z"/>
<path class="st0" d="M271.3,166.6H356c4.7,0,8.5-3.8,8.5-8.5c0-4.7-3.8-8.5-8.5-8.5h-84.8c-4.7,0-8.5,3.8-8.5,8.5
	C262.8,162.8,266.6,166.6,271.3,166.6z"/>
</svg>
