<?xml version="1.0" encoding="utf-8"?>
<!-- Generator: Adobe Illustrator 21.1.0, SVG Export Plug-In . SVG Version: 6.00 Build 0)  -->
<svg version="1.1" id="Layer_1" xmlns="http://www.w3.org/2000/svg" xmlns:xlink="http://www.w3.org/1999/xlink" x="0px" y="0px"
	 viewBox="0 0 512 512" style="enable-background:new 0 0 512 512;" xml:space="preserve">
<style type="text/css">
	.st0{fill:#618cde;}
</style>
<path class="st0" d="M511.7,221.1L511.7,221.1c0.2-2.6,0.3-5.2,0.3-7.8c0-3.1-0.1-6.2-0.5-9.3C504,118.3,391.8,51.2,256,51.2
	c-134.8,0-245.5,66.3-255.2,150.1c-0.5,1.1-0.8,2.3-0.8,3.5v93.9c0,46,30.5,87.6,79.2,117.1c1,1,2.1,1.7,3.5,2.1
	c53.1,29.1,112.8,43.9,173.3,42.9c60.5,1,120.3-13.8,173.3-42.9c1.3-0.4,2.5-1.1,3.5-2.1c48.8-29.5,79.2-71.1,79.2-117.1
	L511.7,221.1L511.7,221.1z M256,68.3c126.8,0,231.4,60.1,238.5,137.1l0.1,15.4c-1,11-3.9,21.7-8.6,31.7c-29,62.4-123.6,106-230,106
	s-201-43.6-230-106c-5.8-12.2-8.9-25.5-8.9-39.1C17.1,133.3,124.3,68.3,256,68.3z"/>
<path class="st0" d="M256,273.1c-60.7,0-93.9-16.9-93.9-25.6c0-4.7-3.8-8.5-8.5-8.5s-8.5,3.8-8.5,8.5c0,26.6,50.2,41.1,102.4,42.5
	v25.7c0,4.7,3.8,8.5,8.5,8.5c4.7,0,8.5-3.8,8.5-8.5V290c52.2-1.4,102.4-16,102.4-42.5c0-28-55.8-42.7-110.9-42.7
	c-60.7,0-93.9-16.9-93.9-25.6c0-8.7,33.1-25.6,93.9-25.6s93.9,16.9,93.9,25.6c0,4.7,3.8,8.5,8.5,8.5s8.5-3.8,8.5-8.5
	c0-26.6-50.2-41.1-102.4-42.5V111c0-4.7-3.8-8.5-8.5-8.5s-8.5,3.8-8.5,8.5v25.7c-52.2,1.4-102.4,16-102.4,42.5
	c0,28,55.8,42.7,110.9,42.7c60.7,0,93.9,16.9,93.9,25.6C349.9,256.2,316.7,273.1,256,273.1z"/>
</svg>
