<svg xmlns="http://www.w3.org/2000/svg" width="17.812" height="23.172" viewBox="0 0 17.812 23.172">
    <defs>
        <style>
            .prefix__cls-1{fill:#fff}
        </style>
    </defs>
    <g id="prefix__noun_Checklist_2171025" transform="translate(-8.072 -2)">
        <g id="prefix__noun_Checklist_2520339" transform="translate(-10.348 -11.83)">
            <g id="prefix__Group_72" data-name="Group 72" transform="translate(18.42 13.83)">
                <path id="prefix__Path_257" d="M27.679 8.87H25.1l.628 1.318a1.431 1.431 0 0 1-1.294 2.056h-8.211a1.427 1.427 0 0 1-1.223-.67 1.461 1.461 0 0 1-.072-1.39l.628-1.313h-2.583a1.557 1.557 0 0 0-1.553 1.558v18.6a1.557 1.557 0 0 0 1.553 1.558h14.706a1.557 1.557 0 0 0 1.553-1.558v-18.6a1.557 1.557 0 0 0-1.553-1.559zm-9.51 16.269l-2.3 2.3a.468.468 0 0 1-.336.144.479.479 0 0 1-.34-.144l-1.213-1.212a.469.469 0 0 1 0-.676.477.477 0 0 1 .676 0l.872.872 1.961-1.961a.483.483 0 0 1 .681 0 .477.477 0 0 1-.001.677zm0-5.618l-2.3 2.3a.464.464 0 0 1-.336.139.475.475 0 0 1-.34-.139l-1.213-1.212a.48.48 0 0 1 .676-.681l.872.877 1.961-1.965a.481.481 0 0 1 .681.681zm0-5.388l-2.3 2.3a.468.468 0 0 1-.336.144.479.479 0 0 1-.34-.144l-1.213-1.212a.469.469 0 0 1 0-.676.477.477 0 0 1 .676 0l.872.872 1.961-1.961a.483.483 0 0 1 .681 0 .477.477 0 0 1-.001.677zm8.168 13.359h-6.361a.479.479 0 1 1 0-.959h6.361a.479.479 0 0 1 0 .959zm0-2.123h-6.361a.479.479 0 1 1 0-.959h6.361a.479.479 0 0 1 0 .959zm0-3.494h-6.361a.479.479 0 1 1 0-.959h6.361a.479.479 0 0 1 0 .959zm0-2.128h-6.361a.479.479 0 1 1 0-.959h6.361a.479.479 0 0 1 0 .959zm0-3.49h-6.361a.479.479 0 1 1 0-.959h6.361a.479.479 0 0 1 0 .959zm0-2.128h-6.361a.479.479 0 1 1 0-.959h6.361a.479.479 0 0 1 0 .959z" class="prefix__cls-1" data-name="Path 257" transform="translate(-11.42 -7.413)"/>
                <path id="prefix__Path_258" d="M20.919 9.7h8.206a.474.474 0 0 0 .407-.22.486.486 0 0 0 .024-.465L28.162 6.1a.479.479 0 0 0-.431-.273h-5.417a.479.479 0 0 0-.431.273l-1.395 2.918a.486.486 0 0 0 .024.465.474.474 0 0 0 .407.217z" class="prefix__cls-1" data-name="Path 258" transform="translate(-16.116 -5.83)"/>
            </g>
        </g>
    </g>
</svg>
