<?xml version="1.0" encoding="utf-8"?>
<!-- Generator: Adobe Illustrator 21.1.0, SVG Export Plug-In . SVG Version: 6.00 Build 0)  -->
<svg version="1.1" id="Layer_1" xmlns="http://www.w3.org/2000/svg" xmlns:xlink="http://www.w3.org/1999/xlink" x="0px" y="0px"
	 viewBox="0 0 512 512" style="enable-background:new 0 0 512 512;" xml:space="preserve">
<style type="text/css">
	.st0{fill:#618cde;}
</style>
<g>
	<g>
		<path class="st0" d="M214.9,374.5c2.3,0,4.6-0.1,7-0.4l239.7-30c27.7-3.5,48.6-27.2,48.6-55.1V133.3c0-9.8-7.9-17.7-17.7-17.7
			H379.1c-9.8,0-17.7,7.9-17.7,17.7c0,9.8,7.9,17.7,17.7,17.7h95.7V289c0,10.1-7.6,18.7-17.6,19.9l-239.7,30
			c-9.3,1.2-18-4.1-21.3-12.9l-65.6-174.9h97.3c9.8,0,17.7-7.9,17.7-17.7c0-9.8-7.9-17.7-17.7-17.7H117.3L102.4,76
			c-8.1-21.6-29-36-52-36H19.9c-9.8,0-17.7,7.9-17.7,17.7c0,9.8,7.9,17.7,17.7,17.7h30.5c8.3,0,15.9,5.2,18.8,13l93.7,250
			c2.3,6.1,5.6,11.6,9.6,16.4l-27.4,45.6c-3.8-0.8-7.8-1.3-11.9-1.3c-30.6,0-55.5,24.9-55.5,55.5s24.9,55.5,55.5,55.5
			c24.4,0,45.2-15.9,52.6-37.8h216.1c7.4,22,28.2,37.8,52.6,37.8c30.6,0,55.5-24.9,55.5-55.5s-24.9-55.5-55.5-55.5
			c-24.4,0-45.2,15.9-52.6,37.8H185.9c-2.3-6.8-5.8-12.9-10.4-18.2l27.3-45.5C206.8,374,210.8,374.5,214.9,374.5z M133.3,474.8
			c-11.1,0-20.1-9-20.1-20.1c0-11.1,9-20.1,20.1-20.1c11.1,0,20.1,9,20.1,20.1C153.4,465.7,144.4,474.8,133.3,474.8z M454.7,434.6
			c11.1,0,20.1,9,20.1,20.1c0,11.1-9,20.1-20.1,20.1c-11.1,0-20.1-9-20.1-20.1C434.6,443.6,443.6,434.6,454.7,434.6z"/>
	</g>
</g>
<g>
	<g>
		<path class="st0" d="M372.7,196.4c-6.9-6.9-18.1-6.9-25.1,0l-26.5,26.5V19.9c0-9.8-7.9-17.7-17.7-17.7c-9.8,0-17.7,7.9-17.7,17.7
			v202.9l-26.5-26.5c-6.9-6.9-18.1-6.9-25.1,0c-6.9,6.9-6.9,18.1,0,25.1l56.7,56.7c3.5,3.5,8,5.2,12.5,5.2c4.5,0,9.1-1.7,12.5-5.2
			l56.7-56.7C379.6,214.6,379.6,203.3,372.7,196.4z"/>
	</g>
</g>
</svg>
