<?xml version="1.0" encoding="utf-8"?>
<!-- Generator: Adobe Illustrator 21.1.0, SVG Export Plug-In . SVG Version: 6.00 Build 0)  -->
<svg version="1.1" id="Layer_1" xmlns="http://www.w3.org/2000/svg" xmlns:xlink="http://www.w3.org/1999/xlink" x="0px" y="0px"
	 viewBox="0 0 512 512" style="enable-background:new 0 0 512 512;" xml:space="preserve">
<style type="text/css">
	.st0{fill:#618cde;}
</style>
<path class="st0" d="M185,191.3c-31.3,8.4-49.8,40.5-41.4,71.8c8.4,31.3,40.5,49.8,71.8,41.4s49.8-40.5,41.4-71.8
	C248.4,201.5,216.3,183,185,191.3z"/>
<path class="st0" d="M217.8,87.2c-1.2-4.5-5.8-7.1-10.3-5.9l-97,26c-4.1,1.1-6.7,5-6.1,9.2c0.5,4.2,4.1,7.3,8.3,7.3
	c0.7,0,1.5-0.1,2.2-0.3l97.1-26C216.3,96.2,219,91.6,217.8,87.2z"/>
<path class="st0" d="M499.7,80.8c-6.3-9.1-16.1-15.3-27-17.2L324.2,37.3c-8-1.4-16.2-0.4-23.7,2.8L298,31
	c-6.1-22.3-29-35.5-51.3-29.6L36.5,57.8c-10.7,2.9-19.9,9.9-25.4,19.5s-7,21-4.1,31.8L106.6,481c4.9,18.3,21.4,31,40.4,31.1
	c3.7,0,7.3-0.5,10.9-1.4l98.1-26.3l138.2,24.4c2.4,0.4,4.9,0.6,7.3,0.6c20.3-0.1,37.6-14.6,41.2-34.6L506.6,112
	C508.5,101.1,506.1,89.9,499.7,80.8z M134.5,491.9c-5.8-3.3-10-8.8-11.7-15.3L23.2,104.7c-1.7-6.4-0.8-13.3,2.5-19
	c3.3-5.8,8.8-10,15.2-11.7l210.3-56.3c13.4-3.5,27.1,4.4,30.8,17.8l99.6,371.9c1.7,6.4,0.8,13.3-2.5,19.1c-3.3,5.8-8.8,10-15.3,11.7
	l-15.2-56.6c-13.2-49.1-63.6-78.3-112.8-65.1l-32.3,8.7c-49.1,13.2-78.2,63.7-65.1,112.8l15.2,56.6
	C147.1,496.1,140.3,495.2,134.5,491.9z M490.1,109.1l-63.9,362.7c-2.4,13.7-15.4,22.8-29.1,20.4L294.2,474l73.8-19.8
	c10.7-2.8,19.9-9.9,25.5-19.5s7.1-21.1,4.2-31.8L305,56.6c5-2.7,10.8-3.7,16.4-2.7L469.8,80C483.4,82.4,492.5,95.4,490.1,109.1z"/>
</svg>
