<?xml version="1.0" encoding="utf-8"?>
<!-- Generator: Adobe Illustrator 21.1.0, SVG Export Plug-In . SVG Version: 6.00 Build 0)  -->
<svg version="1.1" id="Layer_1" xmlns="http://www.w3.org/2000/svg" xmlns:xlink="http://www.w3.org/1999/xlink" x="0px" y="0px"
	 viewBox="0 0 512 512" style="enable-background:new 0 0 512 512;" xml:space="preserve">
<style type="text/css">
	.st0{fill:#618cde;}
</style>
<path class="st0" d="M485.5,0h-459C11.9,0,0,11.9,0,26.5v459C0,500.1,11.9,512,26.5,512h459c14.6,0,26.5-11.9,26.5-26.5v-459
	C512,11.9,500.1,0,485.5,0z M494.3,26.5v220.7h-81.9c-3.3,0-6.4,1.9-7.9,4.9s-1.2,6.6,0.8,9.2c6.3,8.7,9.7,19.2,9.5,30
	c0,24.3-15.8,44.1-35.3,44.1s-35.3-19.8-35.3-44.1c-0.2-10.8,3.2-21.3,9.5-30c2-2.7,2.3-6.3,0.8-9.2s-4.6-4.9-7.9-4.9h-81.9v-66.9
	c8.4,3.4,17.4,5.1,26.5,5.1c34.1,0,61.8-23.8,61.8-53s-27.7-53-61.8-53c-9.1,0-18.1,1.7-26.5,5.1V17.7h220.7
	C490.4,17.7,494.3,21.6,494.3,26.5z M17.7,26.5c0-4.9,4-8.8,8.8-8.8h220.7v81.9c0,3.3,1.9,6.4,4.9,7.9s6.6,1.2,9.2-0.8
	c8.7-6.3,19.2-9.7,30-9.5c24.3,0,44.1,15.8,44.1,35.3s-19.8,35.3-44.1,35.3c-10.8,0.1-21.3-3.2-30-9.5c-2.7-2-6.3-2.3-9.2-0.8
	c-3,1.5-4.9,4.6-4.9,7.9v81.9h-66.9c3.4-8.4,5.1-17.4,5.1-26.5c0-34.1-23.8-61.8-53-61.8s-53,27.7-53,61.8c0,9.1,1.7,18.1,5.1,26.5
	H17.7V26.5z M17.7,485.5V264.8h81.9c3.3,0,6.4-1.9,7.9-4.9s1.2-6.6-0.8-9.2c-6.3-8.7-9.7-19.2-9.5-30c0-24.3,15.8-44.1,35.3-44.1
	s35.3,19.8,35.3,44.1c0.2,10.8-3.2,21.3-9.5,30c-2,2.7-2.3,6.3-0.8,9.2c1.5,3,4.6,4.9,7.9,4.9h81.9v66.9c-8.4-3.4-17.4-5.1-26.5-5.1
	c-34.1,0-61.8,23.8-61.8,53s27.7,53,61.8,53c9.1,0,18.1-1.7,26.5-5.1v66.9H26.5C21.6,494.3,17.7,490.4,17.7,485.5z"/>
</svg>
