<?xml version="1.0" encoding="utf-8"?>
<!-- Svg Vector Icons : http://www.onlinewebfonts.com/icon -->
<!DOCTYPE svg PUBLIC "-//W3C//DTD SVG 1.1//EN" "http://www.w3.org/Graphics/SVG/1.1/DTD/svg11.dtd">
<svg version="1.1" xmlns="http://www.w3.org/2000/svg" xmlns:xlink="http://www.w3.org/1999/xlink" x="0px" y="0px" viewBox="0 0 1000 1000" enable-background="new 0 0 1000 1000" xml:space="preserve">
<metadata> Svg Vector Icons : http://www.onlinewebfonts.com/icon </metadata>
<style type="text/css">
	.st0{fill:#618cde;}
</style>
<g><path class="st0" d="M990,763.2L923.4,500L728.8,689.3l83.5,23.6C742.4,815.8,626.8,878.1,500,878.1c-146.2,0-276.8-81.8-340.5-213.6L77.8,704C155.6,864.9,321.3,968.8,500,968.8c167.3,0,318.2-87.9,402.5-230.4L990,763.2z"/><path class="st0" d="M187.8,287.2C257.5,184.3,373.1,121.9,500,121.9c142.7,0,271.8,78.9,336.7,206l80.9-41.3C837,129.1,677,31.2,500,31.2c-167.3,0-318.1,87.9-402.5,230.5L10,236.9L76.6,500l194.6-189.3L187.8,287.2z"/></g>
</svg>