<svg xmlns="http://www.w3.org/2000/svg" id="prefix__Layer_2" width="60.115" height="46.753" data-name="Layer 2" viewBox="0 0 60.115 46.753">
    <g id="prefix__Layer_1" data-name="Layer 1">
        <path id="prefix__Path_104" d="M59.87 14.945L34.052.065a.487.487 0 0 0-.489 0L.677 19.259a.471.471 0 0 0-.048.033l-.011.008-.035.031-.01.009a.491.491 0 0 0-.07.092l-.003.012-.02.04-.009.016c-.006.014-.01.028-.015.043v.013A18.222 18.222 0 0 0 0 23.95a11.6 11.6 0 0 0 2.782 7.892.483.483 0 0 0 .195.127l24.631 14.715a.487.487 0 0 0 .5 0l30.306-17.862a.487.487 0 0 0 .007-.835l-4.107-2.512 1.008-.6.025-.017.016-.011.022-.018.016-.014.017-.017.016-.017.013-.016.016-.021.01-.016.015-.024.009-.016c0-.008.009-.016.013-.025l.008-.019.009-.024.007-.023c0-.008 0-.014.006-.022s0-.017.005-.025 0-.013 0-.02v-.027-.02-.048a.217.217 0 0 0 0-.023v-.025-.02c0-.007 0-.019-.006-.028l-.005-.018c0-.01-.006-.019-.009-.029a.015.015 0 0 0 0-.006 10.089 10.089 0 0 1-.268-5.72l4.619-2.775a.487.487 0 0 0-.008-.839z" data-name="Path 104" transform="translate(.001)" style="fill:#21282e"/>
        <path id="prefix__Path_105" d="M62.38 136.6l-29.361 17.3-24.431-14.6a10.91 10.91 0 0 1-2.454-7.144 18.331 18.331 0 0 1 .286-3.519l1.686.981a9.827 9.827 0 0 0-.08 5.621A8.849 8.849 0 0 0 9.1 137.7a.485.485 0 0 0 .152.142l21.529 12.726.017.009.026.013.04.016.026.009.043.01.026.005a.483.483 0 0 0 .059 0h.011a.479.479 0 0 0 .06 0h.011a.458.458 0 0 0 .056-.011h.011l.019-.006.026-.01.015-.006a.5.5 0 0 0 .054-.027l27.249-16.329z" data-name="Path 105" transform="translate(-5.158 -108.201)" style="fill:#8e6d49"/>
        <path id="prefix__Path_106" d="M43.422 151.586l-15.587-9.009a.487.487 0 0 0-.487.843l15.921 9.2q-.082.714-.1 1.406l-15.336-8.864a.487.487 0 0 0-.487.844l15.844 9.158a12.253 12.253 0 0 0 .241 1.809l-20.4-12.06a8.425 8.425 0 0 1-.9-2.116 8.707 8.707 0 0 1 .018-4.818l21.5 12.507q-.13.555-.227 1.1z" data-name="Path 106" transform="translate(-18.34 -116.057)" style="fill:#eceded"/>
        <path id="prefix__Path_107" d="M191.059 126.086l-1.349.808-26.968 16.156a13.191 13.191 0 0 1 .031-6.262l.663.385a.487.487 0 0 0 .5 0l26.776-16.086a10.834 10.834 0 0 0 .347 4.999z" data-name="Path 107" transform="translate(-136.579 -101.845)" style="fill:#d9dadb"/>
        <path id="prefix__Path_108" d="M37.1 39.9L11.9 25.236 43.817 6.607l24.858 14.326z" data-name="Path 108" transform="translate(-10.006 -5.557)" style="fill:#d8a261"/>
    </g>
    <g id="prefix__noun_User_1465006" transform="translate(-504.166 -10.03)">
        <g id="prefix__Group_58" data-name="Group 58">
            <g id="prefix__Group_57" data-name="Group 57" transform="translate(-1)">
                <path id="prefix__Path_232" d="M14.377.959a7.5 7.5 0 0 1 6.9-.168 2.165 2.165 0 0 1 1.261 1.741v.035A2.518 2.518 0 0 1 21.1 4.541a7.568 7.568 0 0 1-4.462.889 6.032 6.032 0 0 1-2.44-.72q-.118-.069-.226-.141a2.284 2.284 0 0 1-.969-1.189c-.252-.847.259-1.752 1.374-2.421zm-8.884 3.85a10.554 10.554 0 0 1 7.019-1.093c0 .012.011.024.016.036l.045.1c.015.034.04.084.063.125s.037.064.056.1.05.081.078.121l.066.093c.023.031.06.078.092.116s.05.06.077.089.07.075.107.112l.085.084c.029.028.083.073.125.109s.059.051.091.076c.049.039.1.076.153.113.029.021.056.042.086.062.083.056.17.111.261.164s.181.1.276.148l.094.044c.065.031.13.062.2.091.039.017.08.032.12.048.062.025.124.05.187.073.044.016.091.031.136.046.062.021.123.042.186.061.048.015.1.027.146.041s.125.035.189.051l.153.035c.064.014.128.029.194.042l.16.029c.066.012.132.023.2.033l.165.022.125.017a2.19 2.19 0 0 1 .225 1.6 3.923 3.923 0 0 1-1.939 2.25l-3.8 2.28-8.963-5.2z" data-name="Path 232" transform="translate(524.228 20.835)"/>
            </g>
        </g>
    </g>
</svg>
