<svg xmlns="http://www.w3.org/2000/svg" width="65.684" height="41.089" viewBox="0 0 65.684 41.089">
    <defs>
        <style>
            .prefix__cls-1{fill:#262a2d}.prefix__cls-2{fill:#5d6c82}.prefix__cls-8{fill:#39b2dc}.prefix__cls-9{fill:#3d4859}.prefix__cls-10{fill:#7d8da0}
        </style>
    </defs>
    <g id="prefix__Layer_2" data-name="Layer 2" transform="translate(0 .003)">
        <g id="prefix__Layer_1" data-name="Layer 1" transform="translate(0 -.003)">
            <path id="prefix__Path_207" d="M64.8 10.962a73.887 73.887 0 0 0-8.489-5.668 87.567 87.567 0 0 0-9.9-4.878 6.233 6.233 0 0 0-5.055.244L8.045 19.667a2.29 2.29 0 0 0-1.3 1.75 1.655 1.655 0 0 0 .008.321v6.114a.473.473 0 0 0 .005.07 1.761 1.761 0 0 0 .165.524L.7 32.074a1.166 1.166 0 0 0 0 2.136l.5.294 3.084 1.811 7.56 4.438a2.9 2.9 0 0 0 2.7 0l6.024-3.509c2.271 1.126 4.134 1.93 5.51 2.507a6.04 6.04 0 0 0 2.3.434 5.738 5.738 0 0 0 2.783-.664l33.223-18.954a2.135 2.135 0 0 0 1.289-1.715v-6.094c0-.03.007-.06.01-.09a2 2 0 0 0-.883-1.706z" class="prefix__cls-1" data-name="Path 207" transform="translate(0 .003)"/>
            <path id="prefix__Path_208" d="M293.393 20.105L290 22.043l-15.958-9.1 3.385-1.931a88.308 88.308 0 0 1 8.763 4.391 73.048 73.048 0 0 1 7.206 4.706z" class="prefix__cls-2" data-name="Path 208" transform="translate(-230.358 -9.253)"/>
            <path id="prefix__Path_209" d="M208.638 42.591l-15.958-9.1 11.983-6.836 15.958 9.1z" data-name="Path 209" transform="translate(-161.967 -22.402)" style="fill:#97bf0d"/>
            <path id="prefix__Path_210" d="M178.809 73.066l4.445 2.536L180.807 77c-1.378-.9-2.414-1.668-3.135-2.236a.7.7 0 0 1-.32-.54.934.934 0 0 1 .542-.634z" data-name="Path 210" transform="translate(-149.082 -61.419)" style="fill:#e8511e"/>
            <path id="prefix__Path_211" d="M207.364 92.5l5.1 2.907L210 96.812c-.937-.469-1.915-.985-2.893-1.543q-1.227-.7-2.244-1.341z" data-name="Path 211" transform="translate(-172.207 -77.755)" style="fill:#f8b334"/>
            <path id="prefix__Path_212" d="M246.138 114.271l4.445 2.536-.383.218a3.805 3.805 0 0 1-3.062.128c-.929-.39-2.1-.9-3.387-1.52z" data-name="Path 212" transform="translate(-204.899 -96.056)" style="fill:#41a62a"/>
            <path id="prefix__Path_213" d="M49.318 25.665L82.631 6.66a5.263 5.263 0 0 1 4.086-.234l-17.6 10.041a1.836 1.836 0 0 0-1.033 1.409 1.611 1.611 0 0 0 .69 1.38A52.245 52.245 0 0 0 75.2 23.51a70.316 70.316 0 0 0 7.448 3.634 4.651 4.651 0 0 0 1.774.334 4.431 4.431 0 0 0 2.149-.513l1.125-.642 12.967-7.4 4-2.284.319.245a1.147 1.147 0 0 1 .5.783h-.013v.168a1.487 1.487 0 0 1-.794.893l-3.928 2.241a2.58 2.58 0 0 0-2.318.126L77.875 32.882a8.03 8.03 0 0 0-2.85 2.767l-3.56 2.031a5.25 5.25 0 0 1-4.226.178 92.571 92.571 0 0 1-9.806-4.785A68.569 68.569 0 0 1 49 27.5a1.223 1.223 0 0 1-.478-.683v-.25a1.476 1.476 0 0 1 .796-.902z" data-name="Path 213" transform="translate(-40.789 -5.147)" style="fill:#485366"/>
            <path id="prefix__Path_214" d="M212.639 116.03l20.567-11.789a1.607 1.607 0 0 1 2.391 1.174l.225 1.624a1.925 1.925 0 0 0 .927 1.394l-28.485 16.251a4.785 4.785 0 0 0 .267-.826l.737-3.268a7.057 7.057 0 0 1 3.371-4.56z" class="prefix__cls-2" data-name="Path 214" transform="translate(-175.066 -87.446)"/>
            <path id="prefix__Path_215" d="M6.343 178.276l9.2-5.357q.271.18.593.39l-9.544 5.562-.248-.145c-.17-.1-.215-.191-.215-.226s.045-.125.214-.224z" class="prefix__cls-8" data-name="Path 215" transform="translate(-5.152 -145.356)"/>
            <path id="prefix__Path_216" d="M15.1 184.62l9.5-5.537c.609.386 1.3.815 2.069 1.273l-9.451 5.508z" class="prefix__cls-1" data-name="Path 216" transform="translate(-12.693 -150.537)"/>
            <path id="prefix__Path_217" d="M43 200.161a1.921 1.921 0 0 1-1.708 0l-6.847-4.02 9.449-5.507a81.386 81.386 0 0 0 8.229 4.212z" class="prefix__cls-8" data-name="Path 217" transform="translate(-28.955 -160.248)"/>
            <path id="prefix__Path_218" d="M67.241 161.3c-1.244-.522-2.889-1.23-4.874-2.2l2.713-1.581q.329.136.66.269a.488.488 0 1 0 .362-.907q-.33-.132-.657-.268a.489.489 0 0 0-.368-.154 86.362 86.362 0 0 1-14.623-8.129.488.488 0 1 0-.569.794l.4.275-1.714 1a.789.789 0 0 1-.042-.141v-4.595a70.063 70.063 0 0 0 8.426 5.557 93.561 93.561 0 0 0 9.913 4.838 6.039 6.039 0 0 0 2.3.434 5.738 5.738 0 0 0 2.783-.664l2.342-1.336a7.938 7.938 0 0 0-.254.883l-.737 3.268a3.831 3.831 0 0 1-1.834 2.478 5.252 5.252 0 0 1-4.227.179z" class="prefix__cls-9" data-name="Path 218" transform="translate(-40.79 -122.445)"/>
            <path id="prefix__Path_219" d="M384.785 94.767l-.331.189-.437.246a.95.95 0 0 1-1.408-.7l-.225-1.624a2.58 2.58 0 0 0-.651-1.388l3.537-2.018a3.632 3.632 0 0 0 .31-.2v4.624c.002.259-.303.591-.795.871z" class="prefix__cls-9" data-name="Path 219" transform="translate(-320.886 -75.045)"/>
            <path id="prefix__Path_220" d="M147.867 91.622c.278.227.512.424.738.614a22.171 22.171 0 0 0 2.038 1.568.489.489 0 1 0 .55-.808 21.389 21.389 0 0 1-1.959-1.508c-.229-.192-.466-.391-.749-.622a.488.488 0 1 0-.618.757z" class="prefix__cls-10" data-name="Path 220" transform="translate(-124.146 -76.289)"/>
            <path id="prefix__Path_221" d="M182.177 115.915c.582.359 1.182.716 1.784 1.059.565.322 1.154.646 1.751.962a.488.488 0 0 0 .457-.863c-.588-.311-1.168-.63-1.724-.947-.592-.338-1.183-.688-1.755-1.042a.488.488 0 1 0-.513.831z" class="prefix__cls-10" data-name="Path 221" transform="translate(-152.944 -96.678)"/>
            <path id="prefix__Path_222" d="M223.007 138.264c1.076.516 1.808.8 2.734 1.164.33.129.672.262 1.065.419a.488.488 0 1 0 .363-.907c-.4-.159-.742-.293-1.074-.423-.907-.354-1.624-.633-2.666-1.133a.488.488 0 0 0-.423.881z" class="prefix__cls-10" data-name="Path 222" transform="translate(-187.228 -115.444)"/>
            <path id="prefix__Path_223" d="M126.4 103.866c.278.227.512.424.739.614a22.187 22.187 0 0 0 2.037 1.567.489.489 0 1 0 .55-.808 21.355 21.355 0 0 1-1.959-1.508c-.229-.192-.466-.391-.749-.623a.489.489 0 1 0-.618.757z" class="prefix__cls-10" data-name="Path 223" transform="translate(-106.1 -86.581)"/>
            <path id="prefix__Path_224" d="M160.55 127.489a.488.488 0 0 0 .159.672c.582.359 1.182.716 1.784 1.059.565.322 1.154.646 1.751.962a.488.488 0 1 0 .457-.863c-.588-.311-1.168-.629-1.724-.947-.592-.338-1.182-.688-1.755-1.042a.488.488 0 0 0-.673.159z" class="prefix__cls-10" data-name="Path 224" transform="translate(-134.898 -106.972)"/>
            <path id="prefix__Path_225" d="M201.31 149.859a.489.489 0 0 0 .229.652c1.076.517 1.808.8 2.735 1.164.33.129.671.262 1.065.419a.488.488 0 0 0 .363-.907c-.4-.159-.741-.293-1.073-.423-.908-.354-1.625-.633-2.667-1.134a.489.489 0 0 0-.652.229z" class="prefix__cls-10" data-name="Path 225" transform="translate(-169.181 -125.739)"/>
            <path id="prefix__Path_226" d="M104.929 116.114c.278.227.512.423.738.614a22.146 22.146 0 0 0 2.038 1.568.488.488 0 1 0 .55-.808 21.393 21.393 0 0 1-1.959-1.508c-.229-.192-.466-.391-.749-.622a.488.488 0 1 0-.618.757z" class="prefix__cls-10" data-name="Path 226" transform="translate(-88.052 -96.877)"/>
            <path id="prefix__Path_227" d="M143 142.487a.489.489 0 0 0 .229-.92c-.588-.311-1.168-.63-1.724-.947-.592-.338-1.183-.688-1.755-1.042a.488.488 0 0 0-.513.831c.582.359 1.182.716 1.784 1.059.565.322 1.154.646 1.751.962a.486.486 0 0 0 .228.057z" class="prefix__cls-10" data-name="Path 227" transform="translate(-116.85 -117.268)"/>
            <path id="prefix__Path_228" d="M184.233 163.438c-.4-.159-.741-.293-1.073-.423-.908-.354-1.624-.633-2.667-1.134a.488.488 0 0 0-.423.881c1.076.516 1.808.8 2.735 1.164.33.129.671.262 1.065.419a.488.488 0 1 0 .363-.907z" class="prefix__cls-10" data-name="Path 228" transform="translate(-151.134 -136.037)"/>
            <path id="prefix__Path_229" d="M83.462 128.362c.278.227.512.424.738.614a22.163 22.163 0 0 0 2.038 1.567.488.488 0 0 0 .55-.808 21.352 21.352 0 0 1-1.959-1.508c-.229-.192-.466-.391-.749-.622a.488.488 0 0 0-.618.757z" class="prefix__cls-10" data-name="Path 229" transform="translate(-70.007 -107.173)"/>
            <path id="prefix__Path_230" d="M121.762 153.815c-.589-.311-1.169-.63-1.724-.947-.592-.338-1.182-.688-1.755-1.042a.488.488 0 0 0-.513.831c.582.359 1.182.716 1.784 1.059.564.322 1.154.646 1.751.962a.488.488 0 1 0 .457-.863z" class="prefix__cls-10" data-name="Path 230" transform="translate(-98.803 -127.564)"/>
            <path id="prefix__Path_231" d="M162.764 175.681c-.4-.159-.741-.293-1.073-.423-.908-.354-1.624-.633-2.667-1.134a.488.488 0 1 0-.423.881c1.076.516 1.808.8 2.735 1.164.33.129.671.262 1.065.419a.488.488 0 0 0 .363-.907z" class="prefix__cls-10" data-name="Path 231" transform="translate(-133.088 -146.328)"/>
        </g>
    </g>
</svg>
