<svg xmlns="http://www.w3.org/2000/svg" id="prefix__Layer_2" width="55.674" height="42.555" data-name="Layer 2" viewBox="0 0 55.674 42.555">
    <defs>
        <style>
            .prefix__cls-1{fill:#262a2d}.prefix__cls-2{fill:#5d6c82}.prefix__cls-3{fill:#3d4859}.prefix__cls-4{fill:#4a576b}
        </style>
    </defs>
    <g id="prefix__Layer_1" data-name="Layer 1">
        <path id="prefix__Path_137" d="M52.981 12.85l-4.521-.928a1.317 1.317 0 0 1-.966-.559.241.241 0 0 1 .028-.246.543.543 0 0 1 .04-.056l2.015-2.5A1.788 1.788 0 0 0 50 7.078a2.377 2.377 0 0 0-1.251-1.56l-2.714-1.574a5.993 5.993 0 0 0-4.346-.455l-4.314 1.172a2.436 2.436 0 0 1-2.262-.414.548.548 0 0 1-.038-.052l-1.6-2.629A4.353 4.353 0 0 0 29.784 0h-3.9A4.352 4.352 0 0 0 22.2 1.57l-1.6 2.621a2.248 2.248 0 0 1-2.15.509c-.052-.011-.1-.023-.154-.037L13.984 3.49a6 6 0 0 0-4.346.452L6.927 5.516a2.379 2.379 0 0 0-1.254 1.561 1.785 1.785 0 0 0 .418 1.481l2.019 2.5c.118.145.088.239.077.274-.053.164-.3.406-.823.549-.05.014-.1.026-.152.037l-4.524.929C1.056 13.193 0 14.128 0 15.233v12.09c0 1.1 1.056 2.039 2.691 2.382l2.964.608v4.6a.5.5 0 0 0 .025.155 2.222 2.222 0 0 0 1.245 1.973l2.711 1.569a5.994 5.994 0 0 0 4.346.455l4.318-1.172a2.437 2.437 0 0 1 2.262.414.532.532 0 0 1 .037.052l1.6 2.629a4.353 4.353 0 0 0 3.69 1.566h3.9a5.746 5.746 0 0 0 2.309-.457.494.494 0 0 0 .331-.165 2.842 2.842 0 0 0 1.052-.948l1.6-2.621a2.247 2.247 0 0 1 2.148-.506c.052.011.1.023.154.037l4.312 1.17a5.994 5.994 0 0 0 4.346-.452l2.711-1.573a2.243 2.243 0 0 0 1.28-1.8.552.552 0 0 1-.008-.327v-4.6l2.966-.609c1.633-.343 2.688-1.278 2.689-2.382V15.232c-.007-1.104-1.063-2.039-2.698-2.382z" class="prefix__cls-1" data-name="Path 137"/>
        <path id="prefix__Path_138" d="M6.126 20.371c0-.6.783-1.18 1.9-1.413l4.524-.929c.071-.015.143-.032.212-.051a2.035 2.035 0 0 0 1.5-1.2 1.252 1.252 0 0 0-.249-1.2L12 13.071a.819.819 0 0 1-.213-.677 1.434 1.434 0 0 1 .774-.883l2.714-1.576a4.947 4.947 0 0 1 3.585-.353l4.313 1.171c.069.019.14.036.212.051a3.108 3.108 0 0 0 3.194-.957l1.6-2.62a3.5 3.5 0 0 1 2.85-1.1h3.9a3.5 3.5 0 0 1 2.847 1.1l1.6 2.627a1.527 1.527 0 0 0 .112.157 3.365 3.365 0 0 0 3.291.747l4.315-1.171a4.942 4.942 0 0 1 3.585.355l2.715 1.576a1.431 1.431 0 0 1 .772.882.822.822 0 0 1-.216.68l-2.016 2.5a1.526 1.526 0 0 0-.111.157 1.226 1.226 0 0 0-.1 1.157 2.219 2.219 0 0 0 1.677 1.135l4.52.928c1.12.235 1.9.816 1.9 1.413v2.261c0 .6-.783 1.179-1.9 1.413l-4.522.929c-.071.015-.143.032-.212.051a2.034 2.034 0 0 0-1.5 1.2 1.252 1.252 0 0 0 .249 1.2l2.02 2.506a.856.856 0 0 1 .223.59.476.476 0 0 0-.006.051v.036a1.434 1.434 0 0 1-.774.883l-2.715 1.576a4.482 4.482 0 0 1-2.2.532h-.074a5.168 5.168 0 0 1-1.307-.178l-4.313-1.171c-.069-.019-.14-.036-.212-.051a3.11 3.11 0 0 0-3.194.957l-1.6 2.62a3.5 3.5 0 0 1-2.85 1.1h-3.9a4.386 4.386 0 0 1-2.365-.621.531.531 0 0 0-.045-.031 1.6 1.6 0 0 1-.436-.444l-1.6-2.627a1.493 1.493 0 0 0-.112-.157 3 3 0 0 0-2.282-.879 3.848 3.848 0 0 0-1.009.132l-4.315 1.171a5.158 5.158 0 0 1-1.3.178h-.029a.32.32 0 0 0-.047 0 4.485 4.485 0 0 1-2.205-.533l-2.714-1.576a1.432 1.432 0 0 1-.772-.882v-.035a.488.488 0 0 0-.006-.052.859.859 0 0 1 .204-.592l2.017-2.5a1.528 1.528 0 0 0 .112-.157 1.228 1.228 0 0 0 .1-1.157 2.22 2.22 0 0 0-1.675-1.138l-4.522-.928c-1.12-.235-1.9-.816-1.9-1.413v-2.263z" class="prefix__cls-2" data-name="Path 138" transform="translate(-5.136 -5.138)"/>
        <path id="prefix__Path_139" d="M8.028 128.229c-1.12-.235-1.9-.816-1.9-1.413v-8.148a4.557 4.557 0 0 0 1.7.7l4.521.928a1.317 1.317 0 0 1 .966.559.241.241 0 0 1-.028.246.537.537 0 0 1-.04.056l-2.015 2.5a1.807 1.807 0 0 0-.44 1.345v3.798z" class="prefix__cls-3" data-name="Path 139" transform="translate(-5.136 -99.494)"/>
        <path id="prefix__Path_140" d="M41.9 176.435a1.269 1.269 0 0 1-.754-1.27.493.493 0 0 0-.021-.143v-7.737c.088.063.181.123.28.179l2.711 1.573a5.3 5.3 0 0 0 2.256.646v8.838a4.24 4.24 0 0 1-1.757-.513z" class="prefix__cls-3" data-name="Path 140" transform="translate(-34.483 -140.256)"/>
        <path id="prefix__Path_141" d="M88.289 182.961a1.511 1.511 0 0 0-.112-.157 3.367 3.367 0 0 0-3.291-.747l-4.315 1.172a5.008 5.008 0 0 1-.838.152v-8.835a5.9 5.9 0 0 0 1.1-.19l4.314-1.171a2.436 2.436 0 0 1 2.262.415.538.538 0 0 1 .037.052l1.6 2.628a2.471 2.471 0 0 0 .528.591v8.2z" class="prefix__cls-4" data-name="Path 141" transform="translate(-66.85 -145.119)"/>
        <path id="prefix__Path_142" d="M152.848 209.315h-3.9a4.608 4.608 0 0 1-2.172-.5v-8.734a5.84 5.84 0 0 0 2.172.4h3.9a6.052 6.052 0 0 0 1.775-.257V209a4.938 4.938 0 0 1-1.775.315z" class="prefix__cls-3" data-name="Path 142" transform="translate(-123.064 -167.751)"/>
        <path id="prefix__Path_143" d="M206.364 182.055c-.069-.019-.14-.036-.212-.051a3.11 3.11 0 0 0-3.194.957l-1.6 2.62a1.234 1.234 0 0 1-.084.118v-8.352a.5.5 0 0 0-.034-.179 2.781 2.781 0 0 0 .961-.9l1.6-2.622a2.248 2.248 0 0 1 2.148-.506c.052.011.1.023.154.037l4.311 1.17a5.912 5.912 0 0 0 1.1.19v8.835a5 5 0 0 1-.84-.153z" class="prefix__cls-4" data-name="Path 143" transform="translate(-168.727 -145.116)"/>
        <path id="prefix__Path_144" d="M275.425 176.435l-2.715 1.576a4.235 4.235 0 0 1-1.755.512v-8.838a5.293 5.293 0 0 0 2.254-.646l2.711-1.574c.1-.057.193-.118.282-.181v7.879a.43.43 0 0 1 .008.289 1.336 1.336 0 0 1-.785.983z" class="prefix__cls-3" data-name="Path 144" transform="translate(-227.174 -140.255)"/>
        <path id="prefix__Path_145" d="M299.12 128.229l-2.765.568v-3.791a1.8 1.8 0 0 0-.438-1.342l-2.018-2.5c-.118-.145-.088-.239-.077-.274.053-.164.3-.406.823-.549.05-.014.1-.026.153-.037l4.523-.929a4.548 4.548 0 0 0 1.7-.7v8.147c-.001.591-.783 1.173-1.901 1.407z" class="prefix__cls-4" data-name="Path 145" transform="translate(-246.338 -99.495)"/>
        <path id="prefix__Path_146" d="M101.381 65.721a16.841 16.841 0 0 0 16.861 0c2.327-1.5 3.608-3.521 3.608-5.686v-.005c-.026-2.156-1.316-4.167-3.633-5.663a15.8 15.8 0 0 0-8.4-2.278 15.7 15.7 0 0 0-8.431 2.262c-2.327 1.5-3.608 3.521-3.608 5.685s1.277 4.184 3.603 5.685z" class="prefix__cls-1" data-name="Path 146" transform="translate(-81.976 -43.673)"/>
        <path id="prefix__Path_147" d="M107.059 60.318a14.707 14.707 0 0 1 7.892-2.1c6.046.031 11 3.152 11.049 6.96 0 1.816-1.121 3.539-3.154 4.851a15.861 15.861 0 0 1-15.787 0c-2.034-1.313-3.154-3.038-3.154-4.854s1.12-3.543 3.154-4.857z" class="prefix__cls-2" data-name="Path 147" transform="translate(-87.116 -48.809)"/>
        <path id="prefix__Path_148" d="M116.955 75.968a14.342 14.342 0 0 0 13.091 0c1.841-1.068 2.855-2.518 2.855-4.083v-.007c-.021-1.557-1.042-3-2.875-4.064a13.324 13.324 0 0 0-6.523-1.592 13.247 13.247 0 0 0-6.545 1.581c-1.841 1.069-2.855 2.518-2.855 4.083s1.011 3.014 2.852 4.082z" class="prefix__cls-1" data-name="Path 148" transform="translate(-95.664 -55.522)"/>
        <path id="prefix__Path_149" d="M122.593 73.8a13.275 13.275 0 0 1 12.076.012c1.519.881 2.364 2.024 2.382 3.218a3.7 3.7 0 0 1-1.884 2.921 14.249 14.249 0 0 0-13.071-.013 3.683 3.683 0 0 1-1.865-2.912c0-1.2.839-2.345 2.362-3.226z" class="prefix__cls-3" data-name="Path 149" transform="translate(-100.804 -60.66)"/>
        <path id="prefix__Path_150" d="M137.986 116.815a13.53 13.53 0 0 1 11.06.011 13.654 13.654 0 0 1-11.06-.011z" data-name="Path 150" transform="translate(-115.691 -96.954)" style="fill:#fff"/>
    </g>
</svg>
