<svg xmlns="http://www.w3.org/2000/svg" id="prefix__Layer_2" width="57.462" height="57.233" data-name="Layer 2" viewBox="0 0 57.462 57.233">
    <defs>
        <style>
            .prefix__cls-1{fill:#262a2d}.prefix__cls-2{fill:#f8b334}.prefix__cls-3{fill:#f29400}
        </style>
    </defs>
    <g id="prefix__Layer_1" data-name="Layer 1">
        <path id="prefix__Path_176" d="M234.4 12.245a9.369 9.369 0 0 0-3.166-2.23V6.781c0-1.858-1.219-3.586-3.432-4.866a17.554 17.554 0 0 0-15.949 0c-2.214 1.28-3.432 3.008-3.432 4.866v4.125c0 .078 0 .156.007.233a.457.457 0 0 0-.007.078v4.126a4.7 4.7 0 0 0 1.186 3.038 4.508 4.508 0 0 0-1.186 2.957v4.126c0 .083 0 .166.008.249a.44.44 0 0 0-.008.084v4.125c0 .083 0 .166.008.249a.442.442 0 0 0-.008.084v4.125c0 .083 0 .166.008.249a.44.44 0 0 0-.008.084v4.126c0 .083 0 .166.008.249a.442.442 0 0 0-.008.084V43.3c0 1.858 1.219 3.586 3.432 4.866a17.554 17.554 0 0 0 15.949 0c2.214-1.28 3.432-3.008 3.432-4.866v-4.128a.442.442 0 0 0-.008-.084c0-.083.008-.166.008-.249v-4.126a.445.445 0 0 0-.008-.084c0-.083.008-.165.008-.249v-4.125a.442.442 0 0 0-.008-.084c0-.083.008-.166.008-.249V25.8a.445.445 0 0 0-.008-.084c0-.083.008-.165.008-.249v-.536a10.4 10.4 0 0 0 2.3-1.4 5.2 5.2 0 0 0 2.16-3.992v-4.131a4.794 4.794 0 0 0-1.294-3.163z" class="prefix__cls-1" data-name="Path 176" transform="translate(-178.237)"/>
        <path id="prefix__Path_177" d="M334.062 77.763a3.874 3.874 0 0 1 1.075 2.577c0 1.528-1.062 2.983-2.989 4.1a14.708 14.708 0 0 1-6.409 1.763 13.906 13.906 0 0 0 1.422-.56 11.915 11.915 0 0 0 5.228-1.807 4.361 4.361 0 0 0 2.149-3.494c0-1.5-1.056-2.885-2.976-3.908v-.282a.439.439 0 0 0-.007-.078q0-.072.005-.144a8.178 8.178 0 0 1 2.502 1.833z" class="prefix__cls-2" data-name="Path 177" transform="translate(-278.562 -64.931)"/>
        <path id="prefix__Path_178" d="M353.282 86.449a3.623 3.623 0 0 1 2.088 2.887c0 1.649-1.654 3.116-4.232 3.915a5.212 5.212 0 0 0 2.144-3.98z" class="prefix__cls-2" data-name="Path 178" transform="translate(-300.283 -73.929)"/>
        <path id="prefix__Path_179" d="M217.539 7.93a16.681 16.681 0 0 1 15.06 0c1.928 1.114 2.989 2.569 2.989 4.1s-1.062 2.983-2.989 4.1a16.681 16.681 0 0 1-15.06 0c-1.928-1.114-2.989-2.569-2.989-4.1s1.062-2.986 2.989-4.1z" class="prefix__cls-2" data-name="Path 179" transform="translate(-183.477 -5.246)"/>
        <path id="prefix__Path_180" d="M217.1 67.345a17.554 17.554 0 0 0 15.949 0 7.912 7.912 0 0 0 2.545-2.214v1.474c0 1.528-1.062 2.983-2.989 4.1a16.678 16.678 0 0 1-15.06 0c-1.928-1.114-2.989-2.569-2.989-4.1v-1.474a7.921 7.921 0 0 0 2.544 2.214z" class="prefix__cls-3" data-name="Path 180" transform="translate(-183.477 -55.698)"/>
        <path id="prefix__Path_181" d="M214.547 93.617a7.912 7.912 0 0 0 2.545 2.214 17.554 17.554 0 0 0 15.949 0 7.911 7.911 0 0 0 2.545-2.214V95.4c0 1.744-1.392 3.394-3.819 4.529a16.179 16.179 0 0 1-6.695 1.363 16.39 16.39 0 0 1-6.182-1.136.448.448 0 0 0-.047-.02 11.3 11.3 0 0 1-1.3-.64 9.193 9.193 0 0 1-.82-.533l-.025-.018a7 7 0 0 1-.9-.786.452.452 0 0 0-.043-.047l-.012-.01a3.963 3.963 0 0 1-1.186-2.7z" class="prefix__cls-3" data-name="Path 181" transform="translate(-183.474 -80.058)"/>
        <path id="prefix__Path_182" d="M225.32 137.151q.267.178.556.346a12.024 12.024 0 0 0 1.235.619 7.121 7.121 0 0 0 3.83 3.895 14.559 14.559 0 0 0 3.372 1.165q-.23.006-.463.006a14.215 14.215 0 0 1-6.493-1.413c-1.637-.864-2.539-1.98-2.539-3.143a2.553 2.553 0 0 1 .502-1.475z" class="prefix__cls-2" data-name="Path 182" transform="translate(-192.258 -117.287)"/>
        <path id="prefix__Path_183" d="M215.472 131.382q.171.157.358.31a3.42 3.42 0 0 0-.674 2c0 1.508 1.07 2.9 3.012 3.928a15.11 15.11 0 0 0 6.908 1.516 17.219 17.219 0 0 0 4.075-.472h.388q.632 0 1.254-.04a16.81 16.81 0 0 1-5.717.957 15.306 15.306 0 0 1-7.53-1.8c-1.928-1.114-2.989-2.569-2.989-4.1a3.607 3.607 0 0 1 .915-2.299z" class="prefix__cls-2" data-name="Path 183" transform="translate(-183.483 -112.354)"/>
        <path id="prefix__Path_184" d="M235.589 288.285c0 1.528-1.062 2.983-2.989 4.1a16.677 16.677 0 0 1-15.06 0c-1.928-1.114-2.989-2.569-2.989-4.1v-1.807a7.915 7.915 0 0 0 2.545 2.214 17.554 17.554 0 0 0 15.949 0 7.912 7.912 0 0 0 2.545-2.214z" class="prefix__cls-3" data-name="Path 184" transform="translate(-183.477 -244.987)"/>
        <path id="prefix__Path_185" d="M235.589 257.5c0 1.528-1.062 2.983-2.989 4.1a16.684 16.684 0 0 1-15.06 0c-1.928-1.114-2.989-2.569-2.989-4.1v-1.807a7.912 7.912 0 0 0 2.545 2.214 17.554 17.554 0 0 0 15.949 0 7.91 7.91 0 0 0 2.545-2.214z" class="prefix__cls-3" data-name="Path 185" transform="translate(-183.477 -218.662)"/>
        <path id="prefix__Path_186" d="M235.589 226.717c0 1.528-1.062 2.983-2.989 4.1a16.684 16.684 0 0 1-15.06 0c-1.928-1.114-2.989-2.569-2.989-4.1v-1.807a7.914 7.914 0 0 0 2.545 2.214 17.554 17.554 0 0 0 15.949 0 7.911 7.911 0 0 0 2.545-2.214z" class="prefix__cls-3" data-name="Path 186" transform="translate(-183.477 -192.336)"/>
        <path id="prefix__Path_187" d="M235.589 195.933c0 1.528-1.062 2.983-2.989 4.1a16.681 16.681 0 0 1-15.06 0c-1.928-1.114-2.989-2.569-2.989-4.1v-1.807a7.915 7.915 0 0 0 2.545 2.214 17.554 17.554 0 0 0 15.949 0 7.911 7.911 0 0 0 2.545-2.214z" class="prefix__cls-3" data-name="Path 187" transform="translate(-183.477 -166.012)"/>
        <path id="prefix__Path_188" d="M235.589 167.114c0 1.528-1.062 2.984-2.989 4.1a16.681 16.681 0 0 1-15.06 0c-1.928-1.114-2.989-2.569-2.989-4.1v-1.474a7.912 7.912 0 0 0 2.545 2.214 16.192 16.192 0 0 0 7.974 1.916 15.808 15.808 0 0 0 8.49-2.235 15.648 15.648 0 0 0 2.03-.592z" class="prefix__cls-3" data-name="Path 188" transform="translate(-183.477 -141.65)"/>
        <path id="prefix__Path_189" d="M269.194 126.168c0 2.413-2.717 4.624-6.762 5.5a17.763 17.763 0 0 1-3.757.392c-4.628 0-8.7-1.735-10.047-4.159a17.877 17.877 0 0 0 5.584.857 19.524 19.524 0 0 0 2.016-.1.447.447 0 0 0 .094.025 13.648 13.648 0 0 0 2.353.143 16.2 16.2 0 0 0 7.974-1.916 7.911 7.911 0 0 0 2.545-2.214z" class="prefix__cls-3" data-name="Path 189" transform="translate(-212.619 -106.635)"/>
        <path id="prefix__Path_190" d="M23.844 143.66a16.192 16.192 0 0 0-7.974-1.916 16.2 16.2 0 0 0-7.97 1.916c-2.214 1.28-3.432 3.008-3.432 4.866v3.234a9.361 9.361 0 0 0-3.168 2.23 4.792 4.792 0 0 0-1.3 3.162v4.126a5.2 5.2 0 0 0 2.16 3.992 10.4 10.4 0 0 0 2.3 1.4v.536c0 .083 0 .166.008.249a.433.433 0 0 0-.008.084v4.126c0 1.858 1.219 3.586 3.432 4.865a16.19 16.19 0 0 0 7.974 1.916 16.2 16.2 0 0 0 7.974-1.916c2.214-1.28 3.432-3.008 3.432-4.866v-4.125a.446.446 0 0 0-.008-.084c0-.083.008-.165.008-.249v-4.126a4.5 4.5 0 0 0-1.186-2.957 4.7 4.7 0 0 0 1.186-3.038v-4.126a.443.443 0 0 0-.007-.078c0-.077.007-.155.007-.233v-4.126c.005-1.855-1.214-3.583-3.428-4.862z" class="prefix__cls-1" data-name="Path 190" transform="translate(0 -121.215)"/>
        <path id="prefix__Path_191" d="M7.207 219.507a8.172 8.172 0 0 1 2.5-1.835q0 .072.005.144a.442.442 0 0 0-.007.078v.282c-1.92 1.023-2.976 2.408-2.976 3.908a4.361 4.361 0 0 0 2.149 3.494 11.91 11.91 0 0 0 5.228 1.807 13.88 13.88 0 0 0 1.422.56 14.709 14.709 0 0 1-6.409-1.763c-1.928-1.114-2.989-2.569-2.989-4.1a3.869 3.869 0 0 1 1.077-2.575z" class="prefix__cls-2" data-name="Path 191" transform="translate(-5.245 -186.147)"/>
        <path id="prefix__Path_192" d="M18.484 228.193v2.823A5.212 5.212 0 0 0 20.629 235c-2.578-.8-4.233-2.267-4.233-3.915a3.625 3.625 0 0 1 2.088-2.892z" class="prefix__cls-2" data-name="Path 192" transform="translate(-14.021 -195.144)"/>
        <path id="prefix__Path_193" d="M6.129 267.912v-1.474a7.91 7.91 0 0 0 2.545 2.214 16.192 16.192 0 0 0 7.974 1.916 13.651 13.651 0 0 0 2.352-.143.451.451 0 0 0 .094-.025 19.538 19.538 0 0 0 2.016.1 17.879 17.879 0 0 0 5.585-.857c-1.35 2.424-5.419 4.159-10.047 4.159a17.767 17.767 0 0 1-3.758-.393c-4.044-.873-6.761-3.083-6.761-5.497z" class="prefix__cls-3" data-name="Path 193" transform="translate(-5.241 -227.85)"/>
        <path id="prefix__Path_194" d="M114.819 279.241q.29-.168.556-.345a2.552 2.552 0 0 1 .5 1.474c0 1.163-.9 2.28-2.539 3.143a14.216 14.216 0 0 1-6.493 1.413q-.232 0-.462-.006a14.554 14.554 0 0 0 3.372-1.165 7.119 7.119 0 0 0 3.83-3.895 12 12 0 0 0 1.236-.619z" class="prefix__cls-2" data-name="Path 194" transform="translate(-90.975 -238.504)"/>
        <path id="prefix__Path_195" d="M57.982 337.678c0 1.528-1.062 2.983-2.989 4.1a15.3 15.3 0 0 1-7.53 1.8 15.306 15.306 0 0 1-7.53-1.8c-1.928-1.115-2.989-2.569-2.989-4.1v-1.807a7.91 7.91 0 0 0 2.545 2.214A16.192 16.192 0 0 0 47.462 340a16.2 16.2 0 0 0 7.974-1.916 7.907 7.907 0 0 0 2.545-2.214z" class="prefix__cls-3" data-name="Path 195" transform="translate(-31.593 -287.227)"/>
        <path id="prefix__Path_196" d="M57.982 308.858c0 1.528-1.062 2.983-2.989 4.1a15.3 15.3 0 0 1-7.53 1.8 15.3 15.3 0 0 1-7.53-1.8c-1.928-1.114-2.989-2.569-2.989-4.1v-.171a15.652 15.652 0 0 0 2.03.592 15.808 15.808 0 0 0 8.49 2.235 16.2 16.2 0 0 0 7.974-1.916 7.908 7.908 0 0 0 2.545-2.214z" class="prefix__cls-3" data-name="Path 196" transform="translate(-31.593 -262.866)"/>
        <path id="prefix__Path_197" d="M83.347 279.533a15.3 15.3 0 0 1-7.53 1.8 16.81 16.81 0 0 1-5.717-.956q.621.04 1.254.04h.388a17.218 17.218 0 0 0 4.075.472 15.116 15.116 0 0 0 6.908-1.516c1.942-1.025 3.012-2.42 3.012-3.928a3.421 3.421 0 0 0-.674-2c.124-.1.244-.2.358-.309a3.613 3.613 0 0 1 .916 2.31c-.001 1.518-1.062 2.973-2.99 4.087z" class="prefix__cls-2" data-name="Path 197" transform="translate(-59.947 -233.569)"/>
        <path id="prefix__Path_198" d="M57.979 237.146a3.963 3.963 0 0 1-1.186 2.7l-.012.01a.438.438 0 0 0-.043.048 6.993 6.993 0 0 1-.9.786l-.025.018a9.2 9.2 0 0 1-.82.532 11.292 11.292 0 0 1-1.3.64.482.482 0 0 0-.048.02 16.375 16.375 0 0 1-6.181 1.136 16.176 16.176 0 0 1-6.695-1.363c-2.427-1.134-3.819-2.785-3.819-4.529v-1.786a7.91 7.91 0 0 0 2.545 2.214 16.192 16.192 0 0 0 7.974 1.916 16.2 16.2 0 0 0 7.974-1.916 7.907 7.907 0 0 0 2.545-2.214z" class="prefix__cls-3" data-name="Path 198" transform="translate(-31.59 -201.274)"/>
        <path id="prefix__Path_199" d="M57.982 208.348c0 1.528-1.062 2.983-2.989 4.1a15.3 15.3 0 0 1-7.53 1.8 15.3 15.3 0 0 1-7.53-1.8c-1.928-1.114-2.989-2.569-2.989-4.1v-1.474a7.913 7.913 0 0 0 2.545 2.214A16.192 16.192 0 0 0 47.462 211a16.2 16.2 0 0 0 7.974-1.916 7.908 7.908 0 0 0 2.545-2.214z" class="prefix__cls-3" data-name="Path 199" transform="translate(-31.593 -176.912)"/>
        <path id="prefix__Path_200" d="M54.992 157.872a15.3 15.3 0 0 1-7.53 1.8 15.306 15.306 0 0 1-7.53-1.8c-1.928-1.114-2.989-2.569-2.989-4.1s1.062-2.983 2.989-4.1a15.3 15.3 0 0 1 7.53-1.8 15.3 15.3 0 0 1 7.53 1.8c1.928 1.114 2.989 2.569 2.989 4.1s-1.061 2.986-2.989 4.1z" class="prefix__cls-2" data-name="Path 200" transform="translate(-31.593 -126.465)"/>
        <path id="prefix__Path_201" d="M57.9 152.492a15.11 15.11 0 0 0-6.9-1.516 15.109 15.109 0 0 0-6.908 1.516c-1.942 1.025-3.012 2.42-3.012 3.928s1.07 2.9 3.012 3.928A15.112 15.112 0 0 0 51 161.864a15.116 15.116 0 0 0 6.908-1.516c1.942-1.025 3.012-2.42 3.012-3.928s-1.074-2.903-3.02-3.928z" class="prefix__cls-1" data-name="Path 201" transform="translate(-35.126 -129.11)"/>
        <path id="prefix__Path_202" d="M62.736 164.811a14.216 14.216 0 0 1-6.493 1.413 14.216 14.216 0 0 1-6.493-1.413c-1.637-.864-2.539-1.98-2.539-3.143s.9-2.279 2.539-3.143a14.215 14.215 0 0 1 6.493-1.413 14.215 14.215 0 0 1 6.493 1.413c1.637.864 2.539 1.98 2.539 3.143s-.902 2.279-2.539 3.143z" class="prefix__cls-2" data-name="Path 202" transform="translate(-40.373 -134.357)"/>
        <path id="prefix__Path_203" d="M89.758 172.967l-.8-.439a1.073 1.073 0 0 0 .3-.727 1.256 1.256 0 0 0-.74-1.064 3.3 3.3 0 0 0-2.889 0l-.578.317-.129.071a2.4 2.4 0 0 1-2.035 0c-.193-.106-.28-.22-.28-.286s.087-.18.28-.285l1.938-1.063a.444.444 0 1 0-.427-.779l-1.2.659-1.209-.662a.444.444 0 0 0-.427.778l.724.4a1.181 1.181 0 0 0-.565.956 1.256 1.256 0 0 0 .74 1.064 3.3 3.3 0 0 0 2.888 0l.129-.071.578-.317a2.4 2.4 0 0 1 2.035 0c.193.106.279.22.279.286s-.087.18-.279.286l-1.939 1.063a.444.444 0 0 0 .427.778l1.541-.845 1.209.663a.444.444 0 1 0 .427-.778z" class="prefix__cls-1" data-name="Path 203" transform="translate(-69.553 -144.228)"/>
        <path id="prefix__Path_204" d="M221.7 18.6a16.5 16.5 0 0 0 13.817 0c1.942-1.025 3.012-2.42 3.012-3.928s-1.07-2.9-3.012-3.928a16.5 16.5 0 0 0-13.817 0c-1.942 1.025-3.012 2.42-3.012 3.928s1.069 2.908 3.012 3.928z" class="prefix__cls-1" data-name="Path 204" transform="translate(-187.015 -7.895)"/>
        <path id="prefix__Path_205" d="M227.357 16.774a15.625 15.625 0 0 1 12.987 0c1.637.864 2.539 1.98 2.539 3.143s-.9 2.279-2.539 3.143a15.625 15.625 0 0 1-12.987 0c-1.637-.864-2.539-1.98-2.539-3.143s.902-2.279 2.539-3.143z" class="prefix__cls-2" data-name="Path 205" transform="translate(-192.258 -13.136)"/>
        <path id="prefix__Path_206" d="M259.433 27.993l.724.4a1.181 1.181 0 0 0-.565.956 1.256 1.256 0 0 0 .74 1.064 3.3 3.3 0 0 0 2.888 0l.129-.071.578-.317a2.4 2.4 0 0 1 2.035 0c.193.106.28.22.28.286s-.087.18-.28.286l-1.939 1.063a.444.444 0 1 0 .427.778l1.541-.845 1.209.663a.444.444 0 0 0 .427-.778l-.8-.439a1.074 1.074 0 0 0 .3-.727 1.255 1.255 0 0 0-.741-1.064 3.3 3.3 0 0 0-2.889 0l-.578.317-.129.07a2.4 2.4 0 0 1-2.035 0c-.193-.106-.279-.22-.28-.286s.087-.18.28-.286L262.7 28a.444.444 0 0 0-.427-.778l-1.2.659-1.209-.663a.444.444 0 1 0-.427.778z" class="prefix__cls-1" data-name="Path 206" transform="translate(-221.662 -23.227)"/>
    </g>
</svg>
